<?xml version="1.0" encoding="UTF-8"?>
<svg version="1.1" xmlns="http://www.w3.org/2000/svg" width="256" height="256">
<path d="M0 0 C1.83691406 -0.01836914 1.83691406 -0.01836914 3.7109375 -0.03710938 C9.83583609 -0.04705239 15.11095992 0.06802258 20.875 2.1875 C21.60589844 2.39632812 22.33679688 2.60515625 23.08984375 2.8203125 C24.68489583 3.27604167 26.27994792 3.73177083 27.875 4.1875 C27.875 5.1775 27.875 6.1675 27.875 7.1875 C26.45960938 7.15269531 26.45960938 7.15269531 25.015625 7.1171875 C6.19607851 6.85265572 -8.60839572 10.26011733 -22.64453125 23.578125 C-32.67261786 34.15501237 -36.6962998 45.26197914 -36.375 59.79296875 C-35.34439272 82.89403096 -25.71947735 103.9898471 -9.125 120.1875 C6.17459026 116.08939547 21.5038325 105.85957158 33.67578125 95.89453125 C35.875 94.1875 35.875 94.1875 37.875 94.1875 C37.875 93.5275 37.875 92.8675 37.875 92.1875 C39.52734375 90.77734375 39.52734375 90.77734375 41.8125 89.125 C49.4455952 83.30476491 55.6380081 76.82464095 61.25 69.0625 C61.87539673 68.20192993 61.87539673 68.20192993 62.51342773 67.32397461 C66.73739858 61.30363206 70.09801053 54.74198183 69.875 47.1875 C69.03870045 42.66252209 67.82490396 39.2188243 64.6875 35.8125 C45.58722859 24.77678763 20.61915364 30.87115512 0.53955078 36.19873047 C-5.08293075 37.76820704 -10.39694561 39.76677452 -15.6796875 42.26953125 C-18.32889979 43.26404385 -20.31927755 43.36348618 -23.125 43.1875 C-22.125 40.1875 -22.125 40.1875 -19.58984375 38.828125 C-2.6619265 32.15443891 14.86751776 26.92547976 32.875 24.1875 C34.41220703 23.91292969 34.41220703 23.91292969 35.98046875 23.6328125 C41.69537609 22.97935268 47.3772226 22.9626269 53.125 22.9375 C54.28902344 22.916875 55.45304688 22.89625 56.65234375 22.875 C66.83127352 22.82940569 75.78277402 23.98024308 84.0234375 30.296875 C89.48234259 35.87094686 91.82377928 40.23061668 91.75 48.125 C91.74770386 49.35875366 91.74770386 49.35875366 91.74536133 50.61743164 C91.34789607 59.90561418 87.09859404 66.74455512 81.875 74.1875 C81.32457031 74.99316406 80.77414063 75.79882812 80.20703125 76.62890625 C79.76746094 77.14324219 79.32789063 77.65757813 78.875 78.1875 C78.215 78.1875 77.555 78.1875 76.875 78.1875 C76.606875 78.77015625 76.33875 79.3528125 76.0625 79.953125 C74.86019009 82.21536601 73.53674087 83.99326318 71.875 85.9375 C71.359375 86.55109375 70.84375 87.1646875 70.3125 87.796875 C68.875 89.1875 68.875 89.1875 66.875 89.1875 C66.875 89.8475 66.875 90.5075 66.875 91.1875 C50.82508958 108.28414371 28.32461285 121.159118 7.875 132.1875 C25.15143884 137.05798542 41.57652799 137.87844823 57.875 129.1875 C60.1353343 127.65781516 62.2600126 126.0760021 64.3515625 124.32421875 C65.875 123.1875 65.875 123.1875 67.875 123.1875 C67.875 122.5275 67.875 121.8675 67.875 121.1875 C69.25 119.5625 69.25 119.5625 70.875 118.1875 C71.535 118.1875 72.195 118.1875 72.875 118.1875 C73.24625 117.1046875 73.24625 117.1046875 73.625 116 C74.99276355 112.92253202 76.76905022 110.80398305 78.875 108.1875 C79.91951438 106.21038349 80.93198138 104.21499004 81.875 102.1875 C82.535 102.1875 83.195 102.1875 83.875 102.1875 C84.41156941 117.13692009 84.47788968 130.8065534 74.875 143.1875 C74.48844238 143.68862305 74.10188477 144.18974609 73.70361328 144.70605469 C62.73866945 158.71434636 50.46990965 168.62522494 33.94384766 175.34277344 C32.04359243 176.1186624 30.16675691 176.95127281 28.29296875 177.7890625 C14.39894334 183.17807777 -7.07021928 184.39098752 -21.125 179.1875 C-22.34316406 178.78273437 -23.56132813 178.37796875 -24.81640625 177.9609375 C-36.11225925 173.9491771 -46.77847257 169.16592512 -55.8125 161.125 C-59.24222095 158.31364881 -61.26734779 157.80603481 -65.6875 158.1875 C-67.50418843 158.49719422 -69.31648573 158.83317884 -71.125 159.1875 C-86.91949168 161.54237629 -106.56869215 162.94804165 -120.125 153.1875 C-126.27806836 147.07726042 -128.71215105 142.27217991 -128.76098633 133.45361328 C-128.23421612 119.4651225 -118.36576904 107.86683307 -109.125 98.1875 C-108.52187988 97.55408691 -107.91875977 96.92067383 -107.29736328 96.26806641 C-105.39888155 94.29034034 -103.48609177 92.32829975 -101.5625 90.375 C-100.9545459 89.75737793 -100.3465918 89.13975586 -99.72021484 88.50341797 C-95.3697991 84.1875 -95.3697991 84.1875 -93.125 84.1875 C-93.125 83.5275 -93.125 82.8675 -93.125 82.1875 C-92.49464844 81.79433594 -91.86429688 81.40117188 -91.21484375 80.99609375 C-88.21799197 78.4025566 -88.26666566 76.12042429 -87.6875 72.25 C-83.85530159 50.06485138 -69.84904032 29.41441307 -51.546875 16.4375 C-40.21429792 8.80347595 -27.83529148 2.71086572 -14.125 1.1875 C-11.45753493 -1.47996507 -3.58946831 0.00185406 0 0 Z M-97.3984375 92.14624023 C-105.76005127 100.71813863 -111.99378413 110.84478299 -113.625 122.875 C-112.76667923 128.56137513 -110.83721703 132.67911833 -106.5 136.5 C-95.8246834 141.8376583 -85.82196958 141.51174864 -74.125 141.1875 C-74.66769531 140.04152344 -75.21039063 138.89554688 -75.76953125 137.71484375 C-76.49225281 136.18492668 -77.21490539 134.65497703 -77.9375 133.125 C-78.29392578 132.37283203 -78.65035156 131.62066406 -79.01757812 130.84570312 C-86.17236827 115.68279925 -88.57751661 101.83854669 -89.125 85.1875 C-91.78631383 85.1875 -95.49613619 90.24647457 -97.3984375 92.14624023 Z " fill="#5F98BC" transform="translate(147.125,37.8125)"/>
<path d="M0 0 C1.83691406 -0.01836914 1.83691406 -0.01836914 3.7109375 -0.03710938 C9.83583609 -0.04705239 15.11095992 0.06802258 20.875 2.1875 C21.60589844 2.39632812 22.33679688 2.60515625 23.08984375 2.8203125 C24.68489583 3.27604167 26.27994792 3.73177083 27.875 4.1875 C27.875 5.1775 27.875 6.1675 27.875 7.1875 C26.45960938 7.15269531 26.45960938 7.15269531 25.015625 7.1171875 C6.19607851 6.85265572 -8.60839572 10.26011733 -22.64453125 23.578125 C-32.67261786 34.15501237 -36.6962998 45.26197914 -36.375 59.79296875 C-35.39759194 81.70157048 -26.76058684 102.55191316 -11.125 118.1875 C-11 121.8125 -11 121.8125 -11.125 125.1875 C-25.58403895 130.74260761 -40.01651927 136.28026632 -55.1875 139.5625 C-55.94844971 139.73023926 -56.70939941 139.89797852 -57.4934082 140.07080078 C-62.54304084 141.09610129 -68.00192615 142.10845874 -73.125 141.1875 C-83.08463838 133.13404799 -87.57520616 115.1430525 -89.125 103.1875 C-89.25964999 100.16515831 -89.26488873 97.14989374 -89.25 94.125 C-89.25386719 93.33544922 -89.25773437 92.54589844 -89.26171875 91.73242188 C-89.25500487 87.72759101 -88.99929911 84.1111838 -88.125 80.1875 C-88.2178125 78.4859375 -88.2178125 78.4859375 -88.3125 76.75 C-88.34740168 57.97289557 -75.51489989 38.6465514 -62.78955078 25.79199219 C-49.72393186 13.19779337 -32.34317117 3.21174124 -14.125 1.1875 C-11.45753493 -1.47996507 -3.58946831 0.00185406 0 0 Z " fill="#0C6499" transform="translate(147.125,37.8125)"/>
<path d="M0 0 C0.66 0 1.32 0 2 0 C2.53656941 14.94942009 2.60288968 28.6190534 -7 41 C-7.38655762 41.50112305 -7.77311523 42.00224609 -8.17138672 42.51855469 C-19.13633055 56.52684636 -31.40509035 66.43772494 -47.93115234 73.15527344 C-49.83140757 73.9311624 -51.70824309 74.76377281 -53.58203125 75.6015625 C-67.47605666 80.99057777 -88.94521928 82.20348752 -103 77 C-104.21816406 76.59523438 -105.43632813 76.19046875 -106.69140625 75.7734375 C-119.75128593 71.13517706 -131.35083236 65.01516837 -142 56 C-141.67 54.68 -141.34 53.36 -141 52 C-139.78183594 51.74605469 -138.56367188 51.49210937 -137.30859375 51.23046875 C-135.68481575 50.88318675 -134.06112225 50.53550945 -132.4375 50.1875 C-131.63763672 50.02185547 -130.83777344 49.85621094 -130.01367188 49.68554688 C-125.00979688 48.60307596 -120.6613254 47.10639674 -116 45 C-114.42616815 44.51003348 -112.8431355 44.04800494 -111.25 43.625 C-104.89679596 41.77436699 -99.03695815 38.96667007 -93.09765625 36.07324219 C-78.03866719 28.76775373 -78.03866719 28.76775373 -70 31 C-54.14568452 34.80718061 -38.69448009 35.26564505 -24 27 C-21.74645098 25.46513088 -19.61316232 23.8869735 -17.5234375 22.13671875 C-16 21 -16 21 -14 21 C-14 20.34 -14 19.68 -14 19 C-12.625 17.375 -12.625 17.375 -11 16 C-10.34 16 -9.68 16 -9 16 C-8.62875 14.9171875 -8.62875 14.9171875 -8.25 13.8125 C-6.88223645 10.73503202 -5.10594978 8.61648305 -3 6 C-1.95548562 4.02288349 -0.94301862 2.02749004 0 0 Z " fill="#3F90C3" transform="translate(229,140)"/>
<path d="M0 0 C0.66 0 1.32 0 2 0 C2.3403125 1.00417969 2.680625 2.00835937 3.03125 3.04296875 C7.83866607 16.77964938 14.58857021 29.58857021 25 40 C25.125 43.625 25.125 43.625 25 47 C10.54096105 52.55510761 -3.89151927 58.09276632 -19.0625 61.375 C-20.20392456 61.62660889 -20.20392456 61.62660889 -21.3684082 61.88330078 C-26.41804084 62.90860129 -31.87692615 63.92095874 -37 63 C-46.95414337 54.95099131 -51.4597947 36.95140077 -53 25 C-53.10960711 22.03990775 -53.09512735 19.08655904 -53.0625 16.125 C-53.05798828 15.34125 -53.05347656 14.5575 -53.04882812 13.75 C-53.03714093 11.83329986 -53.01920908 9.91663952 -53 8 C-47.3446712 8.92063492 -47.3446712 8.92063492 -44.625 9.546875 C-29.2839175 12.19503805 -14.09123862 9.34441546 -1 1 C-0.67 0.67 -0.34 0.34 0 0 Z " fill="#235776" transform="translate(111,116)"/>
<path d="M0 0 C1.83691406 -0.01836914 1.83691406 -0.01836914 3.7109375 -0.03710938 C9.83583609 -0.04705239 15.11095992 0.06802258 20.875 2.1875 C21.60589844 2.39632812 22.33679688 2.60515625 23.08984375 2.8203125 C24.68489583 3.27604167 26.27994792 3.73177083 27.875 4.1875 C27.875 5.1775 27.875 6.1675 27.875 7.1875 C26.45960938 7.15269531 26.45960938 7.15269531 25.015625 7.1171875 C6.19607851 6.85265572 -8.60839572 10.26011733 -22.64453125 23.578125 C-29.4977217 30.80636568 -33.81146368 38.51271174 -36.125 48.1875 C-37.115 47.8575 -38.105 47.5275 -39.125 47.1875 C-43.38296267 34.1895087 -41.35537751 20.87863254 -37.125 8.1875 C-34.57858072 6.99442243 -32.13894196 5.99859528 -29.5 5.0625 C-28.80003906 4.79824219 -28.10007812 4.53398438 -27.37890625 4.26171875 C-22.94193504 2.64004282 -18.80391786 1.77687526 -14.125 1.1875 C-11.45753493 -1.47996507 -3.58946831 0.00185406 0 0 Z " fill="#609EC4" transform="translate(147.125,37.8125)"/>
<path d="M0 0 C0.66 0 1.32 0 2 0 C2.52679326 14.67704559 2.03562031 26.51689492 -5.36328125 39.609375 C-10.52529571 43.99523932 -21.09498938 42.18604761 -27.65063477 42.18530273 C-29.79659024 42.18748383 -31.94202611 42.20566732 -34.08789062 42.22460938 C-43.58414665 42.26438585 -52.52079994 41.76524122 -61.375 38 C-62.16648438 37.67 -62.95796875 37.34 -63.7734375 37 C-65.87995837 36.05391343 -67.94425607 35.05133936 -70 34 C-70 33.34 -70 32.68 -70 32 C-68.71867188 32.16757813 -67.43734375 32.33515625 -66.1171875 32.5078125 C-49.26470646 34.55880782 -33.56628414 34.48410646 -19.375 23.6875 C-18.76398438 23.17574219 -18.15296875 22.66398437 -17.5234375 22.13671875 C-16 21 -16 21 -14 21 C-14 20.34 -14 19.68 -14 19 C-12.625 17.375 -12.625 17.375 -11 16 C-10.34 16 -9.68 16 -9 16 C-8.7525 15.278125 -8.505 14.55625 -8.25 13.8125 C-6.88223645 10.73503202 -5.10594978 8.61648305 -3 6 C-1.95548562 4.02288349 -0.94301862 2.02749004 0 0 Z " fill="#629FC5" transform="translate(229,140)"/>
<path d="M0 0 C-3.24234306 10.68250226 -9.43417343 18.08580728 -18 25 C-18.886875 25.86625 -19.77375 26.7325 -20.6875 27.625 C-23 29 -23 29 -25.79296875 28.33203125 C-29.16950911 26.92959488 -31.71357346 25.26452261 -34.625 23.0625 C-35.54539062 22.37285156 -36.46578125 21.68320313 -37.4140625 20.97265625 C-38.26742187 20.32167969 -39.12078125 19.67070312 -40 19 C-41.33279824 17.99928694 -42.66591545 16.99899759 -44 16 C-43.67 14.68 -43.34 13.36 -43 12 C-41.78183594 11.74605469 -40.56367187 11.49210938 -39.30859375 11.23046875 C-37.68481575 10.88318675 -36.06112225 10.53550945 -34.4375 10.1875 C-33.63763672 10.02185547 -32.83777344 9.85621094 -32.01367188 9.68554688 C-27.00849545 8.60279442 -22.66278683 7.10613801 -18 5 C-16.28095945 4.44666077 -14.55232135 3.92155205 -12.8125 3.4375 C-10.35706344 2.75307123 -8.20242603 2.10757497 -5.94921875 0.91015625 C-4 0 -4 0 0 0 Z " fill="#245978" transform="translate(131,180)"/>
</svg>
