<?xml version="1.0" encoding="UTF-8" standalone="no"?>
<!-- Created with Inkscape (http://www.inkscape.org/) -->

<svg
   version="1.1"
   id="svg1"
   width="1496"
   height="1496"
   viewBox="0 0 1496 1496"
   sodipodi:docname="17548.eps"
   xmlns:inkscape="http://www.inkscape.org/namespaces/inkscape"
   xmlns:sodipodi="http://sodipodi.sourceforge.net/DTD/sodipodi-0.dtd"
   xmlns="http://www.w3.org/2000/svg"
   xmlns:svg="http://www.w3.org/2000/svg">
  <defs
     id="defs1">
    <linearGradient
       x1="0"
       y1="0"
       x2="1"
       y2="0"
       gradientUnits="userSpaceOnUse"
       gradientTransform="matrix(1795.6,0,0,-1795.6,2732.48,1018.1)"
       spreadMethod="pad"
       id="linearGradient4">
      <stop
         style="stop-opacity:1;stop-color:#d4d3d3"
         offset="0"
         id="stop3" />
      <stop
         style="stop-opacity:1;stop-color:#ffffff"
         offset="1"
         id="stop4" />
    </linearGradient>
    <clipPath
       clipPathUnits="userSpaceOnUse"
       id="clipPath4">
      <path
         d="m 3686.64,892.102 c -118.91,0 -237.87,3.398 -356.68,6.597 -111.19,3 -222.37,5.903 -333.59,5.903 -10.66,0 -21.34,0 -32,-0.102 -21.77,-0.102 -69.69,-7.5 -116.36,-7.5 -71.87,0 -140.75,17.699 -106.45,107.1 13.64,35.6 43.08,58.2 72.76,73.7 71.31,37.3 149.64,44.2 227.94,44.2 23.86,0 47.73,-0.7 71.38,-1.3 109.5,-2.9 219,-4.3 328.52,-4.3 256.32,0 512.66,7.9 768.65,23.6 32.2,2 64.72,4 97.09,4 51.99,0 103.6,-5.3 152.85,-24.7 20.68,-8.1 41.55,-19.4 55.12,-40.1 13.55,-20.6 17.36,-52.7 3.5,-73 -10.14,-14.798 -26.69,-20.2 -42.17,-24.501 -135.74,-38 -274.06,-60.898 -412.85,-74 -125.71,-11.801 -251.68,-15.597 -377.71,-15.597"
         id="path4" />
    </clipPath>
    <linearGradient
       x1="0"
       y1="0"
       x2="1"
       y2="0"
       gradientUnits="userSpaceOnUse"
       gradientTransform="matrix(2149.75,0,0,-2149.75,5894.56,1020.2)"
       spreadMethod="pad"
       id="linearGradient49">
      <stop
         style="stop-opacity:1;stop-color:#d4d3d3"
         offset="0"
         id="stop48" />
      <stop
         style="stop-opacity:1;stop-color:#ffffff"
         offset="1"
         id="stop49" />
    </linearGradient>
    <clipPath
       clipPathUnits="userSpaceOnUse"
       id="clipPath49">
      <path
         d="m 6472.96,924.801 c -43.45,0 -86.92,0.199 -130.37,0.601 -111.79,1.098 -223.4,5 -335.12,8.297 -57.59,1.801 -151.8,33.199 -95.71,114.701 24.19,35.2 69.56,48.2 111.72,55 21.14,3.4 42.37,5.8 63.68,7.6 -5.75,-2.6 -11.47,-5.3 -17.17,-8 -17.31,-8.2 -34.86,-17.4 -47.21,-32 -12.35,-14.5 -18.39,-35.9 -9.95,-52.9 125.08,8.9 249.71,24 373.27,45.2 12.31,2.1 25.38,4.6 34.36,13.2 9.72,9.3 12.48,23.5 19.76,34.7 0.96,1.5 2.11,3 3.39,4.3 10.33,0 20.66,0 30.99,0 2.23,-15.4 4.46,-30.8 6.69,-46.1 11.82,-1.8 23.78,-2.6 35.74,-2.6 18.89,0 37.77,2.1 56.14,6.5 1.65,14 3.2,28 4.64,42.1 90.04,-0.1 180.02,-0.1 270.06,-0.2 0.43,-11.5 0.85,-23 1.28,-34.4 0.62,-16.5 1.36,-33.5 8.63,-48.3 9.16,-18.6 27.29,-31 44.65,-42.699 19.41,-12.903 39.32,-26.102 61.99,-32 7.18,-1.903 14.72,-2.899 22.23,-2.899 16.2,0 32.21,4.7 43.88,15.5 29.73,27.598 17.58,75.698 5.8,114.298 -3.07,10.1 -5.97,20.2 -8.68,30.4 177.01,-0.2 354.02,-0.3 531.03,-0.4 110.48,-0.1 221.1,-0.2 331.19,-9.4 52.83,-4.4 106.58,-11.1 154.45,-33.9 -69.7,-47.3 -153.87,-67.8 -236.73,-83.099 -257.48,-47.301 -520.65,-52.199 -782.41,-56.899 -184.06,-3.3 -368.13,-6.601 -552.22,-6.601"
         id="path49" />
    </clipPath>
    <linearGradient
       x1="0"
       y1="0"
       x2="1"
       y2="0"
       gradientUnits="userSpaceOnUse"
       gradientTransform="matrix(2149.75,0,0,-2149.75,5894.56,1020.2)"
       spreadMethod="pad"
       id="linearGradient51">
      <stop
         style="stop-opacity:1;stop-color:#2a2a2a"
         offset="0"
         id="stop50" />
      <stop
         style="stop-opacity:1;stop-color:#333333"
         offset="1"
         id="stop51" />
    </linearGradient>
    <clipPath
       clipPathUnits="userSpaceOnUse"
       id="clipPath51">
      <path
         d="m 6012.83,1018.1 c -8.44,17 -2.4,38.4 9.95,52.9 12.35,14.6 29.9,23.8 47.21,32 5.7,2.7 11.42,5.4 17.17,8 51.11,4.3 102.6,4.6 153.98,4.6 5.16,0 10.33,0 15.49,0 62.33,0 124.65,-0.1 186.98,-0.1 -1.28,-1.3 -2.43,-2.8 -3.39,-4.3 -7.28,-11.2 -10.04,-25.4 -19.76,-34.7 -8.98,-8.6 -22.05,-11.1 -34.36,-13.2 -123.56,-21.2 -248.19,-36.3 -373.27,-45.2 m 504.2,48.7 c -11.96,0 -23.92,0.8 -35.74,2.6 -2.23,15.3 -4.46,30.7 -6.69,46.1 34.39,-0.1 68.83,-0.1 103.21,-0.1 -1.44,-14.1 -2.99,-28.1 -4.64,-42.1 -18.37,-4.4 -37.25,-6.5 -56.14,-6.5"
         id="path51" />
    </clipPath>
    <linearGradient
       x1="0"
       y1="0"
       x2="1"
       y2="0"
       gradientUnits="userSpaceOnUse"
       gradientTransform="matrix(2149.75,0,0,-2149.75,5894.56,1020.2)"
       spreadMethod="pad"
       id="linearGradient53">
      <stop
         style="stop-opacity:1;stop-color:#2a2a2a"
         offset="0"
         id="stop52" />
      <stop
         style="stop-opacity:1;stop-color:#333333"
         offset="1"
         id="stop53" />
    </linearGradient>
    <clipPath
       clipPathUnits="userSpaceOnUse"
       id="clipPath53">
      <path
         d="m 6986.65,954.902 c -7.51,0 -15.05,0.996 -22.23,2.899 -22.67,5.898 -42.58,19.097 -61.99,32 -17.36,11.699 -35.49,24.099 -44.65,42.699 -7.27,14.8 -8.01,31.8 -8.63,48.3 -0.43,11.4 -0.85,22.9 -1.28,34.4 59.92,-0.1 119.86,-0.1 179.78,-0.1 2.71,-10.2 5.61,-20.3 8.68,-30.4 11.78,-38.6 23.93,-86.7 -5.8,-114.298 -11.67,-10.8 -27.68,-15.5 -43.88,-15.5"
         id="path53" />
    </clipPath>
  </defs>
  <sodipodi:namedview
     id="namedview1"
     pagecolor="#ffffff"
     bordercolor="#000000"
     borderopacity="0.25"
     inkscape:showpageshadow="2"
     inkscape:pageopacity="0.0"
     inkscape:pagecheckerboard="0"
     inkscape:deskcolor="#d1d1d1">
    <inkscape:page
       x="0"
       y="0"
       inkscape:label="1"
       id="page1"
       width="1496"
       height="1496"
       margin="0"
       bleed="0" />
  </sodipodi:namedview>
  <g
     id="g1"
     inkscape:groupmode="layer"
     inkscape:label="1">
    <g
       id="group-R5">
      <path
         id="path2"
         d="M 0,0 H 11220 V 11220 H 0 Z"
         style="fill:#ffffff;fill-opacity:1;fill-rule:nonzero;stroke:none"
         transform="matrix(0.13333333,0,0,-0.13333333,0,1496)" />
      <path
         id="path3"
         d="m 3686.64,892.102 c -118.91,0 -237.87,3.398 -356.68,6.597 -111.19,3 -222.37,5.903 -333.59,5.903 -10.66,0 -21.34,0 -32,-0.102 -21.77,-0.102 -69.69,-7.5 -116.36,-7.5 -71.87,0 -140.75,17.699 -106.45,107.1 13.64,35.6 43.08,58.2 72.76,73.7 71.31,37.3 149.64,44.2 227.94,44.2 23.86,0 47.73,-0.7 71.38,-1.3 109.5,-2.9 219,-4.3 328.52,-4.3 256.32,0 512.66,7.9 768.65,23.6 32.2,2 64.72,4 97.09,4 51.99,0 103.6,-5.3 152.85,-24.7 20.68,-8.1 41.55,-19.4 55.12,-40.1 13.55,-20.6 17.36,-52.7 3.5,-73 -10.14,-14.798 -26.69,-20.2 -42.17,-24.501 -135.74,-38 -274.06,-60.898 -412.85,-74 -125.71,-11.801 -251.68,-15.597 -377.71,-15.597"
         style="fill:url(#linearGradient4);fill-opacity:1;fill-rule:nonzero;stroke:none"
         transform="matrix(0.13333333,0,0,-0.13333333,0,1496)"
         clip-path="url(#clipPath4)" />
      <path
         id="path5"
         d="m 5109.59,5741.87 c -10.35,1.75 -21.89,3.26 -30.59,-2.62 -4.09,-2.77 -7.1,-6.94 -11.28,-9.56 -5.95,-3.75 -13.4,-3.87 -20.43,-3.88 -35.22,-0.04 -71.01,-0.09 -104.78,-10.08 -8.33,-2.46 -16.88,-5.77 -22.5,-12.4 -5.62,-6.63 -7.15,-17.44 -1.2,-23.79 -11.34,-8.13 -14.99,-25.25 -7.96,-37.3 6.28,-10.74 18.64,-16.09 30.27,-20.51 86.94,-33.08 178.91,-52.88 271.75,-58.53 3.7,-0.23 7.55,-0.41 10.99,0.99 8.26,3.35 10.52,13.79 11.5,22.65 2.51,22.94 4.05,45.98 4.61,69.06 0.27,11.53 0.31,23.07 0.1,34.61 -0.12,6.24 2,20.69 -1.9,26.26 -7.99,11.43 -45.05,11.01 -58.41,13.26 -23.39,3.95 -46.78,7.9 -70.17,11.84"
         style="fill:#f0dcce;fill-opacity:1;fill-rule:nonzero;stroke:none"
         transform="matrix(0.13333333,0,0,-0.13333333,0,1496)" />
      <path
         id="path6"
         d="m 6001.33,5745.72 c 127.61,329.72 169.29,540.67 262.7,881.66 18.39,67.12 44.61,142.58 108.93,169.15 57.27,23.65 126.96,-4.4 163.79,-54.24 36.81,-49.83 45.17,-116.01 37.34,-177.48 -7.84,-61.47 -30.27,-119.94 -50.16,-178.63 -59.55,-175.65 -60.91,-222.85 -123.04,-397.6 -46.63,-131.18 -106.89,-258.14 -137.83,-393.87 -6.95,-30.46 -15.82,-65.78 -44.38,-78.46 -11.19,-4.96 -23.78,-5.46 -36.01,-5.88 -285.05,-9.78 -689.6,-8.21 -970.68,40.21 -11.79,2.03 -3.42,166.57 11.92,179.37 30.52,25.51 170.15,0.64 211.81,0.99 149.81,1.27 416.66,-1.25 565.61,14.78"
         style="fill:#333333;fill-opacity:1;fill-rule:nonzero;stroke:none"
         transform="matrix(0.13333333,0,0,-0.13333333,0,1496)" />
      <path
         id="path7"
         d="m 4208.74,4921.44 c 38.05,-15.64 76.37,-31.36 116.63,-39.79 40.26,-8.42 83.05,-9.21 121.76,4.7 11.78,4.23 24.07,10.81 28.59,22.48 6.97,17.94 -8.03,36.96 -24.24,47.33 -16.2,10.38 -35.65,17.89 -45.55,34.38 -3.35,5.58 -5.38,11.9 -9.04,17.29 -9.39,13.85 -27.1,18.72 -43.05,23.8 -20.92,6.66 -41.19,15.37 -60.43,25.95 -35.72,19.64 -68.86,46.12 -108.69,54.8 -10.59,2.31 -43.39,-42.99 -49.24,-50.94 -14.56,-19.77 -27.21,-41.96 -35.3,-65.21 -8.85,-25.38 0.96,-30.39 23.57,-39.86 28.25,-11.84 56.66,-23.29 84.99,-34.93"
         style="fill:#eaddd0;fill-opacity:1;fill-rule:nonzero;stroke:none"
         transform="matrix(0.13333333,0,0,-0.13333333,0,1496)" />
      <path
         id="path8"
         d="m 4272.25,6462.65 c 12.57,21.98 26.29,46.39 50.25,54.59 10.31,3.52 21.46,3.57 32.08,6 46.02,10.54 71.04,61.45 113.26,82.55 20.9,10.45 44.75,12.93 68,15.25 19.47,1.94 38.94,3.88 58.41,5.82 11.82,1.18 24.41,2.22 34.98,-3.22 18.08,-9.34 22.5,-33.48 19.98,-53.68 -5.8,-46.57 -35.86,-86.43 -68.58,-120.08 -39.76,-40.87 -84.83,-76.14 -129.74,-111.27 -35.23,-27.56 -70.46,-55.11 -105.68,-82.67 -4.95,-3.85 -10.39,-7.9 -16.66,-7.92 -5.31,-0.01 -10.14,2.9 -14.6,5.78 -20.54,13.2 -40.26,27.67 -59.02,43.29 -13.68,11.39 -47.42,33.13 -53.2,50.1 -5.19,15.26 22.57,40.66 31.83,54.07 13.76,19.9 26.67,40.39 38.69,61.39"
         style="fill:#eaddd0;fill-opacity:1;fill-rule:nonzero;stroke:none"
         transform="matrix(0.13333333,0,0,-0.13333333,0,1496)" />
      <path
         id="path9"
         d="m 4350.23,6300.37 c -8.18,13.97 -108.93,111.58 -124.45,116.19 -36.41,10.8 -66.39,-28.3 -85.97,-60.85 -96.12,-159.75 -254.86,-271.24 -420.29,-357.22 -20.77,-10.79 -42.59,-21.05 -65.95,-22.46 -21.63,-1.31 -41.4,4.85 -59.55,15.44 -2.74,-49.47 -9.65,-97.45 -20.91,-144.48 3.13,-30.07 4.14,-60.33 2.19,-90.05 -0.39,-5.96 -0.86,-11.88 -1.34,-17.78 20.81,-40.23 33.41,-82.89 38.2,-126.1 12.22,-1.89 24.44,-2.64 36.61,-2.07 83.07,3.92 155.5,55.81 219.11,109.37 127.22,107.12 288.37,213.31 386.58,347.51 62.23,85.04 149.06,141.6 95.77,232.5"
         style="fill:#ebebeb;fill-opacity:1;fill-rule:nonzero;stroke:none"
         transform="matrix(0.13333333,0,0,-0.13333333,0,1496)" />
      <path
         id="path10"
         d="m 7321.78,2492.11 c 105.54,-19.38 209.85,-45.35 316.01,-61.14 -54.11,558.38 -100.37,1117.49 -138.78,1677.13 -7.07,103.07 -17.8,215.36 -90.26,289.85 -62.14,63.87 -155.87,84.93 -244.42,98.89 -127.02,20.02 -255.38,31.67 -383.96,34.86 -143.92,3.56 -304.7,-10.73 -401.18,-116.28 -62.08,-67.92 -85.23,-161.39 -103.12,-251.18 -80.45,-403.82 -98.56,-816.33 -165.2,-1222.19 -12.69,-77.32 -151.47,-506.77 -93.78,-542.72 34.12,-21.26 241.07,65.08 287.25,75.13 101.97,22.2 205.31,38.25 309.25,48.05 235.97,22.24 475.1,12.41 708.19,-30.4"
         style="fill:#333333;fill-opacity:1;fill-rule:nonzero;stroke:none"
         transform="matrix(0.13333333,0,0,-0.13333333,0,1496)" />
      <path
         id="path11"
         d="m 3428.06,8092.94 c -73.27,-56.04 -117.58,-141.05 -158.3,-223.81 -50.53,-102.68 -99.98,-209.45 -107.32,-323.65 -5.43,-84.43 11.51,-174.66 -27.15,-249.91 144.15,-55.1 285.97,-116.3 424.95,-183.38 198.07,214 335.65,483.41 392.89,769.34 1.9,9.5 3.67,19.59 0.28,28.67 -3.79,10.13 -13.21,16.9 -22.24,22.86 -123.81,81.76 -266.83,128.58 -407.93,174.48 -14.91,4.86 -30.34,9.77 -45.96,8.35 -18.29,-1.66 -34.65,-11.8 -49.22,-22.95"
         style="fill:#eaddd0;fill-opacity:1;fill-rule:nonzero;stroke:none"
         transform="matrix(0.13333333,0,0,-0.13333333,0,1496)" />
      <path
         id="path12"
         d="m 3443.01,1071.9 c -65.66,26.6 -167.18,62.3 -184.44,128.2 -20.36,77.73 33.48,228.93 44.16,310.16 27.31,207.49 48.91,416.02 53.2,625.39 2.52,123.25 -0.92,246.65 6.03,369.73 23.99,424.52 95.65,847.08 157.39,1265.73 9.02,61.17 98.88,342.76 89.14,401.11 -14.24,85.2 -156.2,103.99 -228.16,105.66 -231.48,5.36 -432.79,108.23 -663.2,83.76 79.51,-905.59 156.71,-2280.88 236.23,-3186.44 2.06,0 4.13,0 6.2,-0.1 -21.17,-46.3 -26.31,-100 -13.08,-149.3 1.98,-7.3 4.51,-14.9 9.9,-20.2 6.73,-6.698 16.65,-8.698 25.97,-10.401 155.65,-28.398 314,-41.801 472.2,-40.199 20.66,0.199 44.02,2 57.24,17.801 15.11,18.199 8.56,47.199 -7.61,64.399 -16.18,17.3 -39.25,25.9 -61.17,34.7"
         style="fill:#4d4d4d;fill-opacity:1;fill-rule:nonzero;stroke:none"
         transform="matrix(0.13333333,0,0,-0.13333333,0,1496)" />
      <path
         id="path13"
         d="m 4294.79,7978.31 c -59.6,31.41 -151.24,34.38 -192.92,85.51 41.46,34.7 89.58,65.35 114.77,111.42 -187.07,-71.54 -345.6,28.05 -508.8,95.92 -164.71,68.51 -333.53,45.8 -483.34,-56.78 -276.79,-189.54 -105.31,-641.21 -88.76,-919.58 20.73,29.07 76.46,109.99 77.39,144.54 1.22,45.06 -50.85,56.68 -45.54,105.95 8.21,76.1 85.51,130.34 139.86,69.49 62.97,107.44 160.62,297.12 161.81,423.38 211.35,-128.34 425.89,-218.24 678.64,-135.67 l -57.61,-11.53 c 68.16,22.39 165.16,16.97 204.5,87.35"
         style="fill:#443b36;fill-opacity:1;fill-rule:nonzero;stroke:none"
         transform="matrix(0.13333333,0,0,-0.13333333,0,1496)" />
      <path
         id="path14"
         d="m 3808.35,4731.08 c -36.46,309.41 -56.05,620.63 -52.77,931.89 3.29,312.48 -14.81,623.59 -39.64,935.35 -10.04,126.11 -21.48,252.13 -34.13,378.05 -4.95,49.27 -160.99,100.29 -200.4,108.06 -23.26,4.58 -46.08,10.83 -68.61,17.88 -21.58,6.75 -42.9,14.22 -64.11,21.65 -106.51,37.32 -213.03,74.63 -319.54,111.94 -15.8,5.54 -32.7,11.17 -49.27,8 -12.79,-2.45 -23.67,-9.86 -33.84,-17.35 -198.93,-146.51 -253,-384.73 -307.61,-601.41 -193.02,-765.98 -253.79,-1557.34 -179.63,-2339.01 475.24,-74.15 955.78,-122.34 1437.88,-144.22 -26.82,1.18 -82.14,536.58 -88.33,589.17"
         style="fill:#6b6883;fill-opacity:1;fill-rule:nonzero;stroke:none"
         transform="matrix(0.13333333,0,0,-0.13333333,0,1496)" />
      <path
         id="path15"
         d="m 6946.05,1382.98 c -39.94,-12.76 -103.47,-0.35 -105.56,15.21 -8.61,253.9 -14.24,524.62 2.8,777.99 11.75,174.75 -8.53,309.22 -5.06,484.41 3.69,186.52 -8.93,372.91 -21.55,558.96 -28.52,420.38 -27,840.76 -55.52,1261.15 -11.66,171.99 -123.1,853.98 245.34,771.74 225,-50.21 130.53,-954.87 126.2,-1231.5 -6.65,-423.57 -24.46,-846.93 -53.4,-1269.34 -15.68,-228.8 -34.62,-457.34 -56.84,-685.48 -7.16,-73.6 -34.82,-669.87 -76.41,-683.14"
         style="fill:#f0dcce;fill-opacity:1;fill-rule:nonzero;stroke:none"
         transform="matrix(0.13333333,0,0,-0.13333333,0,1496)" />
      <path
         id="path16"
         d="m 6593.31,3950.02 c 4.74,157.1 -40.57,315.09 -46.65,478.75 -5.36,144.38 -19.09,291.43 -36.61,437.26 -7.93,66.03 -17.55,135.78 -37.71,188.53 -33.17,86.87 -81.36,95.9 -122.15,92.47 -33.74,-2.83 -67.13,-8.93 -100.07,-18.28 -21.58,-6.13 -43.84,-14.59 -58.95,-48.12 -26.44,-58.69 -23.27,-173.31 -18.29,-275.78 40.96,-842.13 101.66,-1689.63 167.25,-2537.04 16.24,-209.77 32.78,-419.58 49.41,-629.39 6.18,-78.04 4.22,-225.01 38.46,-251.82 26.72,-20.92 119.86,-4.22 126.81,42.08 21.75,144.84 5.2,387.5 3.95,560.3 -1.45,200.38 -12.21,408.72 -6.17,609.02 13.57,450.67 27.15,901.35 40.72,1352.02"
         style="fill:#f0dcce;fill-opacity:1;fill-rule:nonzero;stroke:none"
         transform="matrix(0.13333333,0,0,-0.13333333,0,1496)" />
      <path
         id="path17"
         d="m 6172.55,4250.72 c 37.89,283.39 -26.6,574.39 63.22,851.28 10.27,31.65 23.29,64.03 51.85,88.69 45.41,39.2 119.67,50.71 188.59,57.19 151.71,14.27 305.61,15.41 457.62,3.4 369.81,-29.22 438.96,-370.67 476.83,-599.04 23.44,-141.34 44.59,-282.88 65.75,-424.42 19.3,-129.24 38.62,-258.47 57.93,-387.71 2.17,-14.52 3.7,-30.8 -8.71,-42.13 -12.26,-11.18 -33.61,-13.45 -52.88,-14.86 -438.75,-32.13 -881.41,-33.93 -1320.48,-5.39 -13.93,0.91 -29.32,2.37 -38.43,10.27 -8.31,7.19 -8.83,17.57 -8.73,27.07 1.42,146.26 47.97,290.08 67.44,435.65"
         style="fill:#8bb7ab;fill-opacity:1;fill-rule:nonzero;stroke:none"
         transform="matrix(0.13333333,0,0,-0.13333333,0,1496)" />
      <path
         id="path18"
         d="m 6160.6,4693.02 c 42.91,556.25 118.89,1108.69 194.82,1660.65 13.38,97.26 26.76,194.51 40.14,291.76 8.38,60.88 19.12,126.8 60.62,168.18 47.52,47.37 48.73,41.27 111.76,54.64 63.04,13.37 133.79,62.1 126.66,132.15 2.39,-23.52 300.94,-6.76 329.71,-14.39 87.05,-23.07 47.46,-75.83 43.38,-160.7 -11.28,-234.05 41.35,-504.17 98.05,-728.61 75.56,-299.04 207.68,-576.95 300.62,-870.03 51.48,-162.34 91.25,-333.31 78.07,-504.57 -2.82,-36.61 -8.65,-74.63 -28.61,-104.11 -19.96,-29.47 -57.87,-47.19 -88.09,-31.37 -19.97,10.46 -32.45,32.63 -42.09,54.5 -30.71,69.75 -44.52,149.31 -87.38,210.87 -50.27,72.21 -134.24,108.51 -216.72,116.08 -82.48,7.57 -164.94,-10.12 -246.13,-27.73 -167.07,-36.23 -344.31,-78.14 -465.77,-209.13 -68.66,-74.04 -113.03,-170.19 -163.19,-260.36 -11.24,-20.19 -24.9,-41.84 -45.9,-47.11 -41.85,-10.51 0.93,53.77 -3.26,100.67 -5,56.03 -1.02,112.51 3.31,168.61"
         style="fill:#f9f9f9;fill-opacity:1;fill-rule:nonzero;stroke:none"
         transform="matrix(0.13333333,0,0,-0.13333333,0,1496)" />
      <path
         id="path19"
         d="m 6452.46,7487.84 c 19.55,-125.69 46.72,-259.66 138.67,-348.67 66.86,-64.72 164.3,-97.22 257.18,-85.78 92.89,11.43 179.27,66.57 228,145.51 23.1,37.43 37.85,79.25 50.49,121.27 41.51,138.13 61.85,282.45 60.08,426.53 -0.61,50.44 -5.5,104.9 -38.98,142.99 -34.44,39.19 -90.13,51.05 -141.74,60.7 -105.76,19.76 -213.77,39.59 -320.4,25.13 -89.57,-12.14 -210.92,-60.4 -254.77,-146.04 -45.77,-89.35 6.29,-244.03 21.47,-341.64"
         style="fill:#f0dcce;fill-opacity:1;fill-rule:nonzero;stroke:none"
         transform="matrix(0.13333333,0,0,-0.13333333,0,1496)" />
      <path
         id="path20"
         d="m 7064.3,9446.54 c -9.33,-143.63 98.4,-403.09 400.43,-404.63 302.03,-1.54 431.69,226.05 431.69,387.32 0,161.26 -128.52,421.95 -416.34,421.95 -287.82,0 -403.46,-214.73 -415.78,-404.64"
         style="fill:#ffd176;fill-opacity:1;fill-rule:nonzero;stroke:none"
         transform="matrix(0.13333333,0,0,-0.13333333,0,1496)" />
      <path
         id="path21"
         d="m 7474.77,9945.49 c 1.11,72.41 -9.81,187.41 5.64,187.21 15.44,-0.3 20.66,-4.6 18.96,-66.7 -1.71,-62.1 11.05,-134.86 -4.47,-137.38 -15.52,-2.52 -20.13,16.87 -20.13,16.87"
         style="fill:#ffd176;fill-opacity:1;fill-rule:nonzero;stroke:none"
         transform="matrix(0.13333333,0,0,-0.13333333,0,1496)" />
      <path
         id="path22"
         d="m 7828.31,9802.4 c 52.01,50.44 125.61,139.47 136.36,128.38 10.75,-11.09 11.35,-17.87 -33.75,-60.56 -45.11,-42.69 -87.55,-103.18 -100.3,-93.99 -12.76,9.2 -2.31,26.17 -2.31,26.17"
         style="fill:#ffd176;fill-opacity:1;fill-rule:nonzero;stroke:none"
         transform="matrix(0.13333333,0,0,-0.13333333,0,1496)" />
      <path
         id="path23"
         d="m 7977.12,9451.23 c 72.45,-1.12 187.43,9.8 187.2,-5.64 -0.24,-15.44 -4.61,-20.67 -66.69,-18.96 -62.07,1.71 -134.86,-11.05 -137.38,4.47 -2.53,15.51 16.87,20.13 16.87,20.13"
         style="fill:#ffd176;fill-opacity:1;fill-rule:nonzero;stroke:none"
         transform="matrix(0.13333333,0,0,-0.13333333,0,1496)" />
      <path
         id="path24"
         d="m 7834.02,9097.69 c 50.45,-52.02 139.48,-125.61 128.39,-136.36 -11.08,-10.75 -17.87,-11.35 -60.55,33.75 -42.7,45.1 -103.19,87.54 -94,100.3 9.2,12.76 26.16,2.31 26.16,2.31"
         style="fill:#ffd176;fill-opacity:1;fill-rule:nonzero;stroke:none"
         transform="matrix(0.13333333,0,0,-0.13333333,0,1496)" />
      <path
         id="path25"
         d="m 7482.86,8948.88 c -1.11,-72.45 9.81,-187.44 -5.64,-187.2 -15.44,0.24 -20.67,4.61 -18.96,66.69 1.71,62.07 -11.05,134.86 4.46,137.37 15.52,2.52 20.14,-16.86 20.14,-16.86"
         style="fill:#ffd176;fill-opacity:1;fill-rule:nonzero;stroke:none"
         transform="matrix(0.13333333,0,0,-0.13333333,0,1496)" />
      <path
         id="path26"
         d="m 7129.32,9091.97 c -52.02,-50.44 -125.61,-139.47 -136.36,-128.39 -10.75,11.09 -11.35,17.88 33.75,60.56 45.1,42.69 87.55,103.18 100.3,93.99 12.76,-9.19 2.31,-26.16 2.31,-26.16"
         style="fill:#ffd176;fill-opacity:1;fill-rule:nonzero;stroke:none"
         transform="matrix(0.13333333,0,0,-0.13333333,0,1496)" />
      <path
         id="path27"
         d="m 6980.51,9443.14 c -72.45,1.11 -187.43,-9.81 -187.2,5.63 0.23,15.45 4.61,20.67 66.69,18.96 62.07,-1.7 134.85,11.06 137.37,-4.46 2.53,-15.52 -16.86,-20.13 -16.86,-20.13"
         style="fill:#ffd176;fill-opacity:1;fill-rule:nonzero;stroke:none"
         transform="matrix(0.13333333,0,0,-0.13333333,0,1496)" />
      <path
         id="path28"
         d="m 7123.6,9796.68 c -50.45,52.01 -139.47,125.6 -128.39,136.35 11.09,10.76 17.88,11.35 60.56,-33.75 42.7,-45.1 103.19,-87.54 93.99,-100.3 -9.19,-12.75 -26.16,-2.3 -26.16,-2.3"
         style="fill:#ffd176;fill-opacity:1;fill-rule:nonzero;stroke:none"
         transform="matrix(0.13333333,0,0,-0.13333333,0,1496)" />
      <path
         id="path29"
         d="m 7298.95,8664.42 c -44.25,-0.79 -89.23,-0.19 -132.73,0.38 -37.11,0.5 -74.11,0.97 -110.8,0.64 -66.65,-0.62 -134.37,1.82 -199.85,4.19 -31.78,1.13 -63.48,2.27 -95.01,3.07 -26.98,0.68 -53.2,0.67 -79,0.66 -74.12,-0.02 -144.13,-0.04 -218.98,15.63 -13.42,2.83 -55.95,6 -90.11,8.56 -20.13,1.5 -38.58,2.9 -49.82,4.05 -15.88,-4.98 -31.68,-7.63 -47.07,-7.91 h -0.02 c -43.53,-0.78 -83.77,16.83 -119.62,52.35 -64.43,63.79 -102.33,177.52 -101.75,250.61 0.66,78.94 107.21,191.93 183.3,238.19 55.69,33.73 153.18,45.7 195.97,49.45 -13.99,82.45 14.05,173.84 80,259.41 106.51,138.2 289.3,227.67 438.96,213.34 136.75,-13.12 264.65,-98.66 342.11,-228.85 59.04,-99.26 79.72,-207.6 58.85,-299.4 19.25,7.51 44,11.64 73.77,12.17 51.02,0.91 106.19,-8.83 132.19,-18.44 109.96,-40.62 164.02,-97.86 225.35,-189.32 46.52,-69.33 -0.52,-202.07 -52.37,-271.22 -42.11,-56.16 -111.19,-64.2 -177.99,-72.01 -19.49,-2.26 -39.63,-4.63 -58.67,-8.13 -56.68,-10.51 -119.18,-16.04 -196.71,-17.42"
         style="fill:#ededed;fill-opacity:1;fill-rule:nonzero;stroke:none"
         transform="matrix(0.13333333,0,0,-0.13333333,0,1496)" />
      <path
         id="path30"
         d="m 7125.52,2600.9 c -5.2,-118.1 -11.39,-237.96 -50.67,-350.03 57.05,45.38 226.32,0.19 300.51,0 195.73,-0.51 262.46,45.58 458.19,45.07 -29.8,309.23 -58.99,570.21 -84.18,879.09 -57.4,703.65 -48.5,315.35 -118.41,1415.68 -8.66,136.11 -84.75,708.59 -132.92,951.59 -93.73,472.84 -151.17,833.94 -123.45,1301.89 0.49,8.34 -293.9,43.47 -334.22,-19.72 -52.72,-82.66 16.74,-329.99 24.09,-426.38 23.28,-305.34 42.12,-611 56.53,-916.85 28.81,-611.7 39.89,-1224.16 33.18,-1836.44 -3.81,-348.08 -13.36,-696.11 -28.65,-1043.9"
         style="fill:#404040;fill-opacity:1;fill-rule:nonzero;stroke:none"
         transform="matrix(0.13333333,0,0,-0.13333333,0,1496)" />
      <path
         id="path31"
         d="m 6237.25,2170.28 c -114.86,70.93 -252.71,104.88 -387.83,95.5 -59.7,-4.14 -127.73,-14 -172.33,25.42 153.83,119.14 231.1,313.42 255.3,505.02 24.19,191.61 2.2,385.51 -5.95,578.43 -15.12,357.42 17.67,716.79 97.25,1065.78 41.2,180.68 94.87,358.61 128.75,540.77 25.48,137.02 39.63,275.82 53.77,414.44 49.91,489.57 99.83,979.14 149.74,1468.71 -2.43,-23.93 166.88,20.79 179.19,24.99 94.68,32.4 79.2,19.48 69.68,-86.49 -15.16,-168.86 -29.48,-337.79 -43.98,-506.7 -28.45,-331.2 -56.31,-662.45 -83.57,-993.75 -54.8,-665.91 -107.21,-1332.01 -157.23,-1998.29 -28.37,-377.89 -55.97,-755.84 -82.79,-1133.83"
         style="fill:#404040;fill-opacity:1;fill-rule:nonzero;stroke:none"
         transform="matrix(0.13333333,0,0,-0.13333333,0,1496)" />
      <path
         id="path32"
         d="m 6382.78,1618.35 c -5.45,-0.84 -11.14,-1.77 -15.54,-5.08 -8.81,-6.63 -8.78,-19.51 -7.92,-30.43 3.8,-48.42 7.61,-96.85 11.42,-145.28 6.3,-80.16 8.31,-172.07 -50.78,-227.36 -34.55,-32.3 -82.92,-44.5 -128.19,-59 -41.64,-13.3 -82.37,-29.4 -121.78,-48.2 -17.31,-8.2 -34.86,-17.4 -47.21,-32 -12.35,-14.5 -18.39,-35.9 -9.95,-52.9 125.08,8.9 249.71,24 373.27,45.2 12.31,2.1 25.38,4.6 34.36,13.2 9.72,9.3 12.48,23.5 19.76,34.7 7.27,11.3 24.77,19 33.71,8.9 2.45,-16.9 4.91,-33.8 7.36,-50.7 30.5,-4.5 61.87,-3.2 91.88,3.9 15.53,132 21.89,265.17 19.07,398.12 -0.7,32.72 10.19,161.65 -19.06,175.49 -17.83,8.43 -72.46,-10.42 -92.29,-13.47 -32.71,-5.03 -65.4,-10.06 -98.11,-15.09"
         style="fill:#333333;fill-opacity:1;fill-rule:nonzero;stroke:none"
         transform="matrix(0.13333333,0,0,-0.13333333,0,1496)" />
      <path
         id="path33"
         d="m 6988.83,1677.82 c 10.5,0.02 22.12,-0.37 29.76,-7.48 7.04,-6.55 8.61,-16.91 9.18,-26.45 2.97,-49.29 -9.42,-98.02 -17.73,-146.72 -23.39,-137.06 -14.32,-279.37 26.29,-412.47 11.78,-38.6 23.93,-86.7 -5.8,-114.298 -17.07,-15.902 -43.44,-18.504 -66.11,-12.601 -22.67,5.898 -42.58,19.097 -61.99,32 -17.36,11.699 -35.49,24.099 -44.65,42.699 -7.27,14.8 -8.01,31.8 -8.63,48.3 -4.9,132 -9.81,264.03 -14.71,396.07 -1.45,39.11 -26.5,155.65 -5.87,187.32 14.85,22.8 75.16,19.43 120.25,16.06 16.27,-1.22 30.55,-2.44 40.01,-2.43"
         style="fill:#333333;fill-opacity:1;fill-rule:nonzero;stroke:none"
         transform="matrix(0.13333333,0,0,-0.13333333,0,1496)" />
      <path
         id="path34"
         d="m 5094,5521.37 c -4.01,-42.48 -11.22,-92.62 -41.12,-109.84 -10.51,-6.06 -22.29,-6.8 -33.77,-7.03 -35.2,-0.72 -70.45,2.42 -105.25,9.38 -15.23,3.05 -31.27,7.4 -42.51,21.2 -9.48,11.62 -14.17,28.32 -17.86,44.61 -12.83,56.52 -17.41,115.57 -21.94,174.22 -6.47,83.98 -12.96,167.97 -19.43,251.95 -0.93,11.98 -1.72,24.87 2.83,35.33 6.13,14.11 19.7,18.94 31.95,21.33 51.73,10.11 100.33,31.77 152.07,21.6 35.59,-7 87.69,-4.5 120.21,-24.67 35.17,-21.81 23.84,-46.67 15.21,-92.12 -18.65,-98.32 -40.65,-244.04 -40.39,-345.96"
         style="fill:#d9d9d9;fill-opacity:1;fill-rule:nonzero;stroke:none"
         transform="matrix(0.13333333,0,0,-0.13333333,0,1496)" />
      <path
         id="path35"
         d="m 5169.11,6012.84 c -11.46,18.31 -32.96,27.06 -53.53,28.52 -2.75,0.2 -5.47,0.27 -8.21,0.27 -0.75,7.02 -2.06,13.97 -3.92,20.77 -1.53,5.52 -3.58,11.2 -7.78,14.96 -6.38,5.71 -15.73,5.42 -24.12,4.8 -75.27,-5.51 -150.54,-11.01 -225.82,-16.53 -2.17,-8.04 -5.28,-20.92 -5.22,-32.56 -28.87,-3.97 -58.21,-15.6 -67.67,-43.59 -2.84,-8.41 -3.35,-18.25 0.92,-26.04 7.3,-13.35 24.4,-15.22 38.88,-15.54 82.34,-1.8 164.67,-3.61 247,-5.41 45.68,-1 166.27,-20.33 109.47,70.35"
         style="fill:#473d36;fill-opacity:1;fill-rule:nonzero;stroke:none"
         transform="matrix(0.13333333,0,0,-0.13333333,0,1496)" />
      <path
         id="path36"
         d="m 5012.33,5732.16 -0.61,2.37 c -0.27,2.59 -0.03,7.34 2.39,9.07 1.24,2.64 2.62,1.8 4.13,-2.51 -0.56,-1.47 -1.28,-2.86 -2.13,-4.16 -1.06,-1.73 -2.37,-3.29 -3.78,-4.77 z m -17.46,-3.11 c -0.3,-1.1 -0.71,-2.23 -1.24,-3.32 -0.98,1.24 -1.97,2.47 -2.95,3.7 0.14,2.61 0.84,5.06 2.1,7.36 4.7,1.19 2.47,-6.36 2.09,-7.74 z m -18.69,1.28 c -0.22,1.18 -0.38,2.31 -0.45,3.31 -0.26,3.64 0.01,7.23 0.54,10.76 1.45,0.47 2.93,0.91 4.39,1.35 -0.66,-4.46 -1.82,-8.86 -3.53,-13.12 z m 4.93,29.74 c 0.32,-3.62 0.22,-7.24 -0.1,-10.83 -1.38,-0.43 -2.77,-0.8 -4.13,-1.25 0.93,4.16 2.34,8.21 4.23,12.08 z m -13.45,-43.29 c -6.75,-5.79 -9.36,0.49 -10.67,6.26 l 0.39,0.65 c 2.94,5.02 4.92,10.56 5.95,16.25 2.94,1.09 5.91,2.11 8.88,3.1 -0.27,-2.36 -0.45,-4.73 -0.39,-7.13 0.07,-3.38 0.4,-7.61 1.6,-11.38 -1.61,-2.99 -3.54,-5.83 -5.76,-7.75 z m -12.39,20.09 c 1.28,0.52 2.58,0.98 3.86,1.47 -0.7,-2.74 -1.78,-5.96 -3.21,-9.22 -0.38,2.56 -0.57,5.15 -0.65,7.75 z m 0.77,12.08 c 0.28,1.63 0.62,3.26 1.03,4.88 2.66,-0.6 3.75,-2.05 3.28,-4.35 0.52,-2.3 -0.14,-5.55 -0.53,-7.91 -1.53,-0.63 -3.07,-1.26 -4.59,-1.91 0.04,3.11 0.3,6.22 0.81,9.29 z m -18.82,-36.39 c 2.61,2.6 4.96,5.29 6.92,7.9 2.93,3.91 5.41,8.64 4.57,13.6 0.99,0.43 1.97,0.87 2.96,1.29 0.08,-2.81 0.23,-5 0.34,-5.8 0.23,-1.73 0.48,-3.97 0.9,-6.32 -3.97,-6.67 -9.38,-11.89 -15.69,-10.67 z m -7.04,10.7 c 0.08,3.06 0.66,6.58 1.9,9.42 0.64,2.25 2.01,4.06 4.12,5.42 4.43,-0.09 7.23,-1.2 8.41,-3.31 -0.93,-0.45 -1.89,-0.86 -2.81,-1.32 -1.31,-0.64 -0.17,-2.53 1.14,-1.92 l 2.27,0.99 c 0.07,-0.92 0,-1.91 -0.31,-3.05 -0.75,-3.37 -3.18,-6.37 -5.34,-8.95 -1.89,-2.26 -3.96,-4.42 -6.17,-6.46 -2.75,1.94 -3.33,5.11 -3.21,9.18 z m 97.79,13.74 c -1.17,-2.28 -2.36,-4.84 -4.15,-6.74 -2.82,-2.99 -6.38,-3.05 -8.92,-1.29 4.07,3.86 7.37,8.68 7.63,13.61 0.32,6.02 -5.69,9.4 -10.24,5.05 -4.36,-4.17 -6.09,-12.68 -3.34,-18.54 -1.6,-1.24 -3.26,-2.36 -5.04,-3.27 -1.63,-0.82 -5.02,-2.55 -7.29,-2.64 0.89,1.55 1.58,3.19 2.04,4.83 1.16,4.19 2.18,16.16 -6.04,13.64 -5.82,-1.79 -7.16,-13.44 -4.91,-18.05 0.58,-1.17 1.34,-2.03 2.22,-2.66 l -1.22,-0.8 c -5.55,-2.93 -8.96,0.34 -10.91,4.77 3.67,6.85 5.91,14.34 6.83,22.01 1.69,0.48 3.36,1.02 5.06,1.49 2.07,0.56 1.19,3.75 -0.89,3.19 -1.28,-0.35 -2.53,-0.78 -3.79,-1.15 0.35,5.38 0.05,10.83 -0.92,16.18 -0.3,1.67 -2.69,1.74 -3.48,0.45 -3.92,-6.35 -6.55,-13.32 -7.84,-20.56 -2.98,-1.05 -5.95,-2.1 -8.88,-3.26 0.49,4.19 1.74,13.66 -2.92,16.36 -8.04,4.65 -9.4,-10.99 -9.34,-21.54 -1.2,-0.54 -2.37,-1.11 -3.56,-1.67 -1.55,3.84 -5.08,6.66 -9.48,6.28 -12.4,-1.07 -15.42,-22.14 -9.42,-30.32 l 0.93,-1.16 c -5.2,-4.26 -11.01,-7.83 -17.16,-10.31 -13.46,-5.46 -27.13,3.03 -28.51,17.38 -1.31,13.64 8.11,24.34 19.87,29.96 1.24,0.61 0.15,2.4 -1.08,1.83 -13.24,-6.13 -23.7,-18.86 -21.35,-34.05 1.84,-11.98 12.79,-21.8 25.41,-20.28 8.99,1.08 18.21,6.45 25.83,13.02 7.04,-3.88 15.5,3.21 20.84,9.96 1,-3.44 2.55,-6.57 5.13,-8.14 5.27,-3.19 9.99,1.78 12.99,5.57 1.12,1.42 2.16,2.9 3.14,4.39 1.48,-2.43 3.6,-4.31 6.66,-5.06 4.82,-1.19 8.99,0.78 12.05,4.02 4.01,-0.39 8.78,1.37 11.95,3 1.7,0.87 3.52,2 5.33,3.36 l 1.25,-1.02 c 8.31,-5.69 15.61,3.74 18.94,10.19 1.16,2.24 -2.26,4.22 -3.42,1.97"
         style="fill:#919191;fill-opacity:1;fill-rule:nonzero;stroke:none"
         transform="matrix(0.13333333,0,0,-0.13333333,0,1496)" />
      <path
         id="path37"
         d="m 5081.2,5703.13 c -5.17,-17.54 -15.74,-31.89 -28.92,-43.08 6.08,8.32 10.59,17.24 13.69,26.49 12.06,21.37 17.8,45.8 14.55,69.28 5.03,-17.05 5.78,-35.44 0.68,-52.69 z m -149.74,-65.74 c -17.59,5.69 -34.03,15.24 -46.96,28.28 l -0.69,0.75 c -21.42,26.3 -24.15,65.75 -13.71,98.01 2.46,7.6 5.96,14.38 10.13,20.49 1.65,2.25 3.34,4.44 5.15,6.55 l 1.08,1.26 c 1.57,1.79 3.27,3.45 4.96,5.11 l 2.35,2.06 c 9.79,6.66 20.32,12.4 31.32,16.98 5.25,1.58 10.62,2.88 16.15,3.55 63.14,7.68 134.21,-49.83 115.53,-122.65 -0.77,-3.03 -1.88,-5.72 -2.87,-8.53 l -0.92,-1.51 c -25.72,-38.78 -77.45,-60.44 -121.52,-50.35 z m 122.15,149.73 c 8.8,-12.93 13.54,-27.67 14.52,-42.64 -7.05,29.77 -25.98,57.15 -53.09,73.43 15.2,-6.56 28.87,-16.52 38.57,-30.79 z m 38.85,-25.13 c -12.94,41.3 -48.15,69.56 -87.6,78.07 -10.91,2.35 -21.85,3.17 -32.66,2.66 -8.61,0.29 -17.21,-0.32 -25.68,-1.74 -67.3,-6.16 -121.63,-79.98 -91.7,-151.42 0.39,-0.91 0.89,-1.7 1.29,-2.58 13.87,-35.94 45.28,-64.17 85.16,-69.74 78.94,-11.02 182.15,46 151.19,144.75"
         style="fill:#919191;fill-opacity:1;fill-rule:nonzero;stroke:none"
         transform="matrix(0.13333333,0,0,-0.13333333,0,1496)" />
      <path
         id="path38"
         d="m 4548,6368.48 c -5.02,-31.58 -13.38,-68.78 -43.07,-80.67 -10.43,-4.17 -21.98,-4.34 -33.21,-4.14 -34.44,0.6 -68.84,4.1 -102.71,10.43 -14.8,2.77 -30.38,6.54 -41.02,17.21 -8.97,8.98 -13.13,21.6 -16.31,33.89 -11.07,42.61 -14.02,86.85 -16.92,130.78 -4.16,62.91 -8.31,125.82 -12.47,188.73 -0.6,8.98 -1.04,18.62 3.69,26.28 6.36,10.34 19.75,13.5 31.8,14.89 50.86,5.86 102.1,-3.46 152.45,-12.74 34.61,-6.38 85.64,-6.21 116.93,-22.33 33.83,-17.43 22.1,-35.63 12.49,-69.27 -20.8,-72.8 -49.26,-156.96 -51.65,-233.06"
         style="fill:#404040;fill-opacity:1;fill-rule:nonzero;stroke:none"
         transform="matrix(0.13333333,0,0,-0.13333333,0,1496)" />
      <path
         id="path39"
         d="m 4629.78,6703.13 c -8.23,17.31 -26.89,27.6 -45.67,31.47 -18.78,3.87 -38.18,2.44 -57.36,2.69 -35.03,0.45 -69.56,6.53 -104.11,12.65 0.47,8.67 0.7,17.35 0.45,26.02 -0.07,2.13 -0.2,4.4 -1.43,6.16 -1.59,2.27 -4.57,3.02 -7.28,3.57 -29.13,5.81 -59.44,5.62 -88.47,-0.58 -1.93,-7.93 -4.1,-15.6 -6.45,-23.22 -23.75,-1.42 -46.88,-8.81 -57.62,-28.95 -3.71,-6.94 -5.43,-15.4 -2.49,-22.68 5.02,-12.48 20.52,-16.26 33.81,-18.37 75.62,-11.97 151.21,-23.92 226.8,-35.89 41.94,-6.63 150.53,-38.6 109.82,47.13"
         style="fill:#000000;fill-opacity:1;fill-rule:nonzero;stroke:none"
         transform="matrix(0.13333333,0,0,-0.13333333,0,1496)" />
      <path
         id="path40"
         d="m 3278.84,6793.31 c 57.43,-39.53 68.38,-118.52 72.69,-188.1 16.56,-267.27 11.72,-535.86 -14.43,-802.36 -2.72,-27.78 -5.3,-57.56 8.19,-82 10.5,-19.01 29.2,-31.82 47.23,-43.92 254.68,-170.94 509.35,-341.87 764.01,-512.8 21.74,-14.59 45.75,-33.01 46.99,-59.16 0.83,-17.48 -9.09,-33.45 -18.62,-48.13 -24.72,-38.07 -49.45,-76.14 -74.18,-114.21 -383.73,142.84 -744.52,347.07 -1064.47,602.56 -12.85,10.26 -25.92,20.92 -34.37,35.02 -11.36,18.93 -13.2,41.89 -14.74,63.91 -20.34,289.05 -40.68,578.1 -61.02,867.14 -5.75,81.78 -31.39,192.26 39.15,254.1 69.83,61.19 227.03,80.64 303.57,27.95"
         style="fill:#ebebeb;fill-opacity:1;fill-rule:nonzero;stroke:none"
         transform="matrix(0.13333333,0,0,-0.13333333,0,1496)" />
      <path
         id="path41"
         d="m 7921.31,5729.3 c -13.76,-7.95 -28.49,-16.08 -44.28,-16.04 -17.25,0.06 -32.27,9.82 -46.01,19.37 -261.81,182.05 -477.66,423.29 -626.16,699.79 -32.45,60.42 -62.12,123.81 -69.77,192.12 -7.66,68.31 9.57,142.98 60.14,193.75 19.41,19.47 45.03,35.49 72.59,35.68 36.24,0.24 65.25,-26.1 88,-52.4 60.42,-69.85 105.14,-151.01 159.03,-225.71 104.81,-145.24 243.71,-265.24 345.87,-412.25 20.1,-28.92 42.28,-61.28 78.02,-68.51 33.86,-6.85 68.11,11.38 98.47,28.9 201.31,116.18 402.62,232.35 603.93,348.53 9.3,5.42 96.66,-116.3 88.27,-143.83 -15.86,-52.02 -116.85,-106.84 -156.69,-140.63 -128.93,-109.36 -264.44,-211.53 -405.51,-305.79 -80.23,-53.6 -162.25,-104.63 -245.9,-152.98"
         style="fill:#333333;fill-opacity:1;fill-rule:nonzero;stroke:none"
         transform="matrix(0.13333333,0,0,-0.13333333,0,1496)" />
      <path
         id="path42"
         d="m 7551.82,6421.4 c -1.81,117.94 -3.83,237.37 -35.37,351.13 -15.52,55.94 -38.05,109.97 -50.23,166.7 -33.89,157.74 14.39,319.6 43.02,478.34 28.62,158.75 32.18,338.75 -72.36,462.58 -57.17,67.74 -140.68,109.77 -226.95,132.48 -86.27,22.72 -176.15,27.72 -265.3,32.6 -100.52,5.51 -201.51,11.01 -301.7,1.29 -79.4,-7.7 -162.02,-27.06 -220.24,-80.95 -166.8,-154.37 32.88,-279.95 187.89,-277.98 83.29,1.05 165.6,21.36 248.88,19.79 83.27,-1.58 173.63,-31.3 214.88,-102.78 24.97,-43.27 28.28,-95.24 27.87,-145.05 -0.64,-76.5 -8.64,-152.95 -23.86,-227.96 -18.99,-93.57 -49.25,-190.06 -24.89,-282.41 14.95,-56.66 49.29,-106.09 74.39,-159.14 36.59,-77.37 53.46,-162.71 59.05,-247.93 5.1,-77.8 0.58,-158.19 -31.15,-229.58 -31.73,-71.38 -94.54,-132.65 -172.11,-147 -57.1,-10.56 -124.26,10.45 -149.17,62.28 -24.9,51.84 17.43,127.35 75.03,119.9 -83.66,21.95 -179.7,-38.32 -195.12,-122.46 -18.85,-102.7 75.62,-199.61 179.24,-220.02 103.63,-20.41 209.73,16.01 305.67,59.75 79.7,36.35 156.84,78.18 230.69,125.08 39.67,25.2 79.93,53.56 101.4,95.04 21.38,41.33 21.15,89.89 20.44,136.3"
         style="fill:#ba8775;fill-opacity:1;fill-rule:nonzero;stroke:none"
         transform="matrix(0.13333333,0,0,-0.13333333,0,1496)" />
      <path
         id="path43"
         d="m 8812.48,6401.58 c 34.94,21.28 70.35,42.92 98.36,72.25 28.02,29.32 48.19,67.8 45.77,106.71 -0.2,3.34 -0.65,6.87 -2.81,9.45 -2.16,2.57 -6.59,3.62 -9.23,1.32 -0.15,8.83 -9.48,15.15 -18.66,15.63 -9.17,0.47 -18.1,-3.33 -26.59,-7.05 -27.67,-12.13 -55.34,-24.26 -83,-36.38 -4.3,-1.88 -8.8,-3.81 -13.43,-3.57 -4.12,0.22 -7.85,2.12 -11.85,2.99 -14.16,3.1 -28.04,-6.81 -39.27,-16.24 -32.19,-27.06 -63.01,-55.64 -92.29,-85.61 -5.12,-5.24 -10.49,-11.13 -11.1,-18.19 -0.35,-4.16 1.01,-8.2 2.46,-12.09 6.89,-18.64 15.68,-36.58 26.16,-53.51 6.3,-10.19 18.33,-36.45 32.62,-36.41 14.15,0.05 36.49,20.29 48.19,27.42 18.23,11.1 36.45,22.19 54.67,33.28"
         style="fill:#f9e9de;fill-opacity:1;fill-rule:nonzero;stroke:none"
         transform="matrix(0.13333333,0,0,-0.13333333,0,1496)" />
      <path
         id="path44"
         d="m 3949.45,8841.67 c 159.34,-10.15 240.44,26.56 316.56,40.56 16.23,3 43.37,7.51 75.53,12.71 27.57,72.66 38.54,146.11 34.95,210.43 -2.08,37.28 -6.93,74 -13.84,109.89 -120.51,-9.72 -122.96,-64.23 -231.53,-113.68 -119.65,-54.49 -245.46,-6.36 -237.14,74.78 8.32,81.14 1.82,111.57 -99.6,331.74 -33.57,72.86 -40.19,128.63 -34.41,171.03 -130.85,7.86 -239.43,4.35 -239.43,4.35 0,0 -204.91,-24.72 -331.31,-175.49 5.87,-1.04 108.38,-20.72 178.24,-138.93 71.92,-121.7 -102.36,-200.26 0,-267.48 102.35,-67.21 112.5,-270.06 112.5,-361.34 0,-54.95 -18.56,-123.16 -61.95,-169.28 55.19,-19.76 118.44,-34.69 190.9,-43.71 28.32,-3.52 55.49,-5.58 82.06,-6.88 2.1,41.52 8.51,93.33 24.61,148.88 38.22,131.85 74.53,182.56 233.86,172.42"
         style="fill:#94cbea;fill-opacity:1;fill-rule:nonzero;stroke:none"
         transform="matrix(0.13333333,0,0,-0.13333333,0,1496)" />
      <path
         id="path45"
         d="m 3367.47,9101.58 c -102.36,67.22 71.92,145.78 0,267.48 -69.86,118.21 -172.37,137.89 -178.24,138.93 -37.43,-44.65 -68.3,-99.83 -84.53,-169.35 -61.99,-265.65 -66.46,-631.76 313.32,-767.68 43.39,46.12 61.95,114.33 61.95,169.28 0,91.28 -10.15,294.13 -112.5,361.34"
         style="fill:#6cb476;fill-opacity:1;fill-rule:nonzero;stroke:none"
         transform="matrix(0.13333333,0,0,-0.13333333,0,1496)" />
      <path
         id="path46"
         d="m 3794.38,9508.1 c 101.42,-220.17 107.92,-250.6 99.6,-331.74 -8.32,-81.14 117.49,-129.27 237.14,-74.78 108.57,49.45 111.02,103.96 231.53,113.68 -40.1,208.19 -159.17,384.4 -333.49,427.65 -82.37,20.44 -180.81,30.9 -269.19,36.22 -5.78,-42.4 0.84,-98.17 34.41,-171.03"
         style="fill:#6cb476;fill-opacity:1;fill-rule:nonzero;stroke:none"
         transform="matrix(0.13333333,0,0,-0.13333333,0,1496)" />
      <path
         id="path47"
         d="m 4341.54,8894.94 c -32.16,-5.2 -59.3,-9.71 -75.53,-12.71 -76.12,-14 -157.22,-50.71 -316.56,-40.56 -159.33,10.14 -195.64,-40.57 -233.86,-172.42 -16.1,-55.55 -22.51,-107.36 -24.61,-148.88 373.09,-18.25 574.84,175 650.56,374.57"
         style="fill:#6cb476;fill-opacity:1;fill-rule:nonzero;stroke:none"
         transform="matrix(0.13333333,0,0,-0.13333333,0,1496)" />
      <path
         id="path48"
         d="m 6472.96,924.801 c -43.45,0 -86.92,0.199 -130.37,0.601 -111.79,1.098 -223.4,5 -335.12,8.297 -57.59,1.801 -151.8,33.199 -95.71,114.701 24.19,35.2 69.56,48.2 111.72,55 21.14,3.4 42.37,5.8 63.68,7.6 -5.75,-2.6 -11.47,-5.3 -17.17,-8 -17.31,-8.2 -34.86,-17.4 -47.21,-32 -12.35,-14.5 -18.39,-35.9 -9.95,-52.9 125.08,8.9 249.71,24 373.27,45.2 12.31,2.1 25.38,4.6 34.36,13.2 9.72,9.3 12.48,23.5 19.76,34.7 0.96,1.5 2.11,3 3.39,4.3 10.33,0 20.66,0 30.99,0 2.23,-15.4 4.46,-30.8 6.69,-46.1 11.82,-1.8 23.78,-2.6 35.74,-2.6 18.89,0 37.77,2.1 56.14,6.5 1.65,14 3.2,28 4.64,42.1 90.04,-0.1 180.02,-0.1 270.06,-0.2 0.43,-11.5 0.85,-23 1.28,-34.4 0.62,-16.5 1.36,-33.5 8.63,-48.3 9.16,-18.6 27.29,-31 44.65,-42.699 19.41,-12.903 39.32,-26.102 61.99,-32 7.18,-1.903 14.72,-2.899 22.23,-2.899 16.2,0 32.21,4.7 43.88,15.5 29.73,27.598 17.58,75.698 5.8,114.298 -3.07,10.1 -5.97,20.2 -8.68,30.4 177.01,-0.2 354.02,-0.3 531.03,-0.4 110.48,-0.1 221.1,-0.2 331.19,-9.4 52.83,-4.4 106.58,-11.1 154.45,-33.9 -69.7,-47.3 -153.87,-67.8 -236.73,-83.099 -257.48,-47.301 -520.65,-52.199 -782.41,-56.899 -184.06,-3.3 -368.13,-6.601 -552.22,-6.601"
         style="fill:url(#linearGradient49);fill-opacity:1;fill-rule:nonzero;stroke:none"
         transform="matrix(0.13333333,0,0,-0.13333333,0,1496)"
         clip-path="url(#clipPath49)" />
      <path
         id="path50"
         d="m 6012.83,1018.1 c -8.44,17 -2.4,38.4 9.95,52.9 12.35,14.6 29.9,23.8 47.21,32 5.7,2.7 11.42,5.4 17.17,8 51.11,4.3 102.6,4.6 153.98,4.6 5.16,0 10.33,0 15.49,0 62.33,0 124.65,-0.1 186.98,-0.1 -1.28,-1.3 -2.43,-2.8 -3.39,-4.3 -7.28,-11.2 -10.04,-25.4 -19.76,-34.7 -8.98,-8.6 -22.05,-11.1 -34.36,-13.2 -123.56,-21.2 -248.19,-36.3 -373.27,-45.2 m 504.2,48.7 c -11.96,0 -23.92,0.8 -35.74,2.6 -2.23,15.3 -4.46,30.7 -6.69,46.1 34.39,-0.1 68.83,-0.1 103.21,-0.1 -1.44,-14.1 -2.99,-28.1 -4.64,-42.1 -18.37,-4.4 -37.25,-6.5 -56.14,-6.5"
         style="fill:url(#linearGradient51);fill-opacity:1;fill-rule:nonzero;stroke:none"
         transform="matrix(0.13333333,0,0,-0.13333333,0,1496)"
         clip-path="url(#clipPath51)" />
      <path
         id="path52"
         d="m 6986.65,954.902 c -7.51,0 -15.05,0.996 -22.23,2.899 -22.67,5.898 -42.58,19.097 -61.99,32 -17.36,11.699 -35.49,24.099 -44.65,42.699 -7.27,14.8 -8.01,31.8 -8.63,48.3 -0.43,11.4 -0.85,22.9 -1.28,34.4 59.92,-0.1 119.86,-0.1 179.78,-0.1 2.71,-10.2 5.61,-20.3 8.68,-30.4 11.78,-38.6 23.93,-86.7 -5.8,-114.298 -11.67,-10.8 -27.68,-15.5 -43.88,-15.5"
         style="fill:url(#linearGradient53);fill-opacity:1;fill-rule:nonzero;stroke:none"
         transform="matrix(0.13333333,0,0,-0.13333333,0,1496)"
         clip-path="url(#clipPath53)" />
    </g>
  </g>
</svg>
