<?xml version="1.0" encoding="UTF-8" standalone="no"?>
<!-- Created with Inkscape (http://www.inkscape.org/) -->

<svg
   version="1.1"
   id="svg1"
   width="259.18665"
   height="260.13879"
   viewBox="0 0 259.18665 260.1388"
   sodipodi:docname="9932340(1).svg"
   inkscape:version="1.4.3 (0d15f75, 2025-12-25)"
   xmlns:inkscape="http://www.inkscape.org/namespaces/inkscape"
   xmlns:sodipodi="http://sodipodi.sourceforge.net/DTD/sodipodi-0.dtd"
   xmlns="http://www.w3.org/2000/svg"
   xmlns:svg="http://www.w3.org/2000/svg">
  <defs
     id="defs1" />
  <sodipodi:namedview
     id="namedview1"
     pagecolor="#ffffff"
     bordercolor="#000000"
     borderopacity="0.25"
     inkscape:showpageshadow="2"
     inkscape:pageopacity="0.0"
     inkscape:pagecheckerboard="0"
     inkscape:deskcolor="#d1d1d1"
     showguides="true"
     showgrid="true"
     inkscape:zoom="1.1741508"
     inkscape:cx="-65.579308"
     inkscape:cy="28.531258"
     inkscape:window-width="2560"
     inkscape:window-height="1346"
     inkscape:window-x="-11"
     inkscape:window-y="-11"
     inkscape:window-maximized="1"
     inkscape:current-layer="group-R5">
    <inkscape:page
       x="0"
       y="0"
       inkscape:label="1"
       id="page1"
       width="259.18665"
       height="260.13879"
       margin="0"
       bleed="0" />
  </sodipodi:namedview>
  <g
     id="g1"
     inkscape:groupmode="layer"
     inkscape:label="1"
     transform="translate(-197.12207,-179.21263)">
    <g
       id="group-R5">
      <path
         id="path3-2"
         d="m 456.30871,400.98849 c 0,21.18693 -56.9426,38.36293 -127.18398,38.36293 -70.24133,0 -127.18266,-17.176 -127.18266,-38.36293 0,-21.188 56.94133,-38.36413 127.18266,-38.36413 70.24138,0 127.18398,17.17613 127.18398,38.36413"
         style="fill:#4a5ab2;fill-opacity:1;fill-rule:nonzero;stroke:none;stroke-width:0.133333" />
      <path
         id="path4-4"
         d="m 260.8794,401.96449 c -10.484,0 -17.18133,-2.1224 -19.952,-6.33586 -2.768,-4.20947 -0.46533,-8.80427 -0.36533,-8.99854 l 1.34266,0.688 c -0.0213,0.0396 -2,4.0292 0.292,7.49587 2.04534,3.09587 8.01867,6.55213 24.876,5.42133 l 0.1,1.5052 c -2.22933,0.14947 -4.32933,0.224 -6.29333,0.224"
         style="fill:#7a86cc;fill-opacity:1;fill-rule:nonzero;stroke:none;stroke-width:0.133333" />
      <path
         id="path5-5"
         d="m 259.8194,408.44729 c -16.99867,0 -27.296,-3.2744 -30.68933,-9.7864 -4.24934,-8.15213 4.01333,-18.04013 4.36666,-18.45786 l 1.15067,0.976 c -0.08,0.0948 -7.96267,9.5376 -4.17733,16.7896 2.824,5.4104 13.168,11.2104 46.384,8.08386 l 0.14266,1.5016 c -6.32933,0.59587 -12.05733,0.8932 -17.17733,0.8932"
         style="fill:#7a86cc;fill-opacity:1;fill-rule:nonzero;stroke:none;stroke-width:0.133333" />
      <path
         id="path6-5"
         d="m 376.46471,414.00876 v -1.50827 c 21.3826,-0.0412 34.3533,-3.9052 37.512,-11.17613 3.3173,-7.63587 -5.0507,-16.75987 -5.136,-16.852 l 1.104,-1.02667 c 0.3746,0.40267 9.1213,9.948 5.4146,18.48027 -3.464,7.97453 -16.5493,12.04013 -38.892,12.0828"
         style="fill:#7a86cc;fill-opacity:1;fill-rule:nonzero;stroke:none;stroke-width:0.133333" />
      <path
         id="path7-1"
         d="m 374.41671,420.61396 c -9.3386,0 -19.89331,-0.40414 -31.65331,-1.21454 l 0.10266,-1.50573 c 62.80935,4.32547 79.64665,-3.8104 82.70935,-11.3984 3.04,-7.53186 -7.016,-16.09226 -7.1173,-16.1772 l 0.968,-1.15466 c 0.4506,0.37706 10.9933,9.35986 7.5466,17.89586 -3.6386,9.0188 -21.2773,13.55467 -52.556,13.55467"
         style="fill:#7a86cc;fill-opacity:1;fill-rule:nonzero;stroke:none;stroke-width:0.133333" />
      <path
         id="path8-7"
         d="m 406.22871,334.83129 -34.6053,-31.412 -76.91468,-9.64533 -62.06133,9.66667 c -4.99067,-0.0653 -9.8,0.0213 -14.372,0.27733 l 33.20133,87.0216 50.87334,1.33853 -2.14267,14.72654 101.21201,-14.19227 15.796,-54.62107 c 0,0 -4.0053,-1.2 -10.9867,-3.16"
         style="fill:#afe2f8;fill-opacity:1;fill-rule:nonzero;stroke:none;stroke-width:0.133333" />
      <path
         id="path9-1"
         d="m 248.8994,322.34463 18.22267,54.38813 -2.01067,-47.88413 9.42533,30.1628 v -45.24414 l -25.63733,8.57734"
         style="fill:#7a86cc;fill-opacity:1;fill-rule:nonzero;stroke:none;stroke-width:0.133333" />
      <path
         id="path10-1"
         d="m 300.2074,406.80463 -3.236,-88.136 5.844,35.6308 9.048,-7.42414 -11.656,59.92934"
         style="fill:#7a86cc;fill-opacity:1;fill-rule:nonzero;stroke:none;stroke-width:0.133333" />
      <path
         id="path11-5"
         d="m 333.92073,398.60623 14.516,-30.16827 c 0,0 0.75333,21.49067 0.75333,21.30253 0,-0.18906 27.27335,-47.31853 27.27335,-47.31853 l -23.88001,54.10507 -8.86,-6.78654 -9.80267,8.86574"
         style="fill:#7a86cc;fill-opacity:1;fill-rule:nonzero;stroke:none;stroke-width:0.133333" />
      <path
         id="path12-2"
         d="m 398.95941,339.78329 c 0,0 -3.308,23.43747 -2.9733,22.84107 0.3333,-0.59573 8.0626,-15.74907 8.0626,-15.74907 0,0 -7.1626,39.0944 -6.9746,38.52934 0.188,-0.56507 16.024,-43.92534 16.024,-43.92534 l -14.1387,-1.696"
         style="fill:#7a86cc;fill-opacity:1;fill-rule:nonzero;stroke:none;stroke-width:0.133333" />
      <path
         id="path13-7"
         d="m 234.0714,271.85663 v -40.47867 l 9.908,3.528 -6.96133,36.95067 h -2.94667"
         style="fill:#131c2f;fill-opacity:1;fill-rule:nonzero;stroke:none;stroke-width:0.133333" />
      <path
         id="path14-6"
         d="m 197.12207,242.4033 v -63.19067 l 93.71333,8.30133 -8.568,57.56667 -85.14533,-2.67733"
         style="fill:#f25043;fill-opacity:1;fill-rule:nonzero;stroke:none;stroke-width:0.133333" />
      <path
         id="path15-1"
         d="m 204.26873,237.43796 73.40134,1.97334 7.30666,-44.692 -81.68266,-9.116 z m 74.676,3.516 -76.156,-2.048 -1.036,-54.992 84.968,9.48267 -7.776,47.55733"
         style="fill:#f9aa37;fill-opacity:1;fill-rule:nonzero;stroke:none;stroke-width:0.133333" />
      <path
         id="path16-4"
         d="m 226.0194,223.6353 -4.51333,0.11466 c -0.064,-1.97066 -0.072,-3.88133 -0.136,-5.85066 l -4.26267,0.204 c -0.10133,1.972 0.13067,3.93866 0.29467,5.89466 -1.79334,0.108 -3.60267,-0.0133 -5.396,-0.0227 0.16,-5.50667 0.30666,-10.97734 0.31733,-16.484 h 3.78667 c 0.25733,2.268 0.256,4.508 0.45333,6.78 1.468,-0.0347 2.85467,-0.012 4.33067,-0.0453 l 0.22666,-7.34666 c 1.60934,-0.052 3.19734,-0.0493 4.78534,0.22666 0.168,5.53867 0.0347,10.99067 0.11333,16.52934"
         style="fill:#131c2f;fill-opacity:1;fill-rule:nonzero;stroke:none;stroke-width:0.133333" />
      <path
         id="path17-2"
         d="m 242.2994,209.8953 c -2.97067,0.15466 -5.85467,0.29866 -8.82133,0.544 l -0.044,1.79066 5.84933,-0.34 c 0.228,1.45067 0.25067,2.89067 0.204,4.35334 l -5.44133,0.976 0.34,2.81066 c 2.31466,-0.13866 4.57466,-0.50533 6.892,-0.70266 0.224,1.49733 0.364,3.056 0.772,4.512 -4.30134,-0.0373 -8.488,0.0533 -12.78934,0.0453 0.188,-5.736 0.37334,-11.44267 0.11334,-17.18667 4.22666,0.0453 8.44933,-0.092 12.676,0.18134 l 0.24933,3.016"
         style="fill:#131c2f;fill-opacity:1;fill-rule:nonzero;stroke:none;stroke-width:0.133333" />
      <path
         id="path18-3"
         d="m 255.2914,223.13663 c -3.60267,0.27333 -7.12,0.51333 -10.72533,0.72667 -0.16534,-5.8 -0.176,-11.42934 -0.43067,-17.23334 2.02133,-0.0293 3.952,-0.12 5.96267,-0.272 -0.67334,4.11734 -0.94934,8.28 -1.04267,12.448 1.988,0.0693 3.91467,0.0227 5.896,0.0907 l 0.34,4.24"
         style="fill:#131c2f;fill-opacity:1;fill-rule:nonzero;stroke:none;stroke-width:0.133333" />
      <path
         id="path19-2"
         d="m 267.6034,212.16196 c 0.43467,-3.396 -3.62133,-2.18133 -5.71333,-1.99466 0.15866,1.61466 0.0347,3.18666 0.15866,4.80666 2.01334,-0.16533 6.04534,0.324 5.55467,-2.812 z m 6.34933,0.15867 c -0.22,1.68933 0.152,4.84933 -2.02933,5.29467 -2.748,0.508 -6.264,0.856 -9.01333,1.05466 l -0.18134,4.716 c -1.53333,0.076 -3.04933,-0.124 -4.58,0.068 0.0733,-5.38266 -0.18933,-10.71733 -0.31733,-16.09866 5.01867,-0.17334 10.80933,-1.73867 15.48667,0.68 0.612,1.104 0.556,3.05733 0.63466,4.28533"
         style="fill:#131c2f;fill-opacity:1;fill-rule:nonzero;stroke:none;stroke-width:0.133333" />
      <path
         id="path20-2"
         d="m 380.37271,247.56596 c 33.6987,14.96934 12.4787,-20.15733 12.4787,-20.15733 l -18.8787,13.45067 -37.86531,-8.90534 -4.84,-17.66533 c 0,0 -35.65467,19.06933 -1.69067,20.764 l -69.532,62.24 -6.96133,-28.51067 -22.224,-5.76133 c 0,0 -0.0213,1.28533 0.0533,3.16933 l -16.92266,-2.63466 c 0,0 -14.72667,49.53466 21.68933,29.18533 l -3.032,10.7 c 24.12,0.332 52.49067,4.23066 79.64133,9.28533 -2.036,9.51067 -3.89866,25.78 5.452,31.156 13.52667,7.764 29.90267,-0.40667 29.58133,-14.94133 l 58.90668,5.89066 c 0,0 -5.6173,-55.35599 -25.856,-87.26533"
         style="fill:#7a86cc;fill-opacity:1;fill-rule:nonzero;stroke:none;stroke-width:0.133333" />
      <path
         id="path21-1"
         d="m 346.55006,328.10596 0.0187,0.852 c 0.12,5.30933 -2.09333,10.00133 -6.13067,13.19467 -4.188,-7.56534 -0.192,-19.43734 -0.14933,-19.56134 l -1.42533,-0.49333 c -0.184,0.532 -4.308,12.772 0.32933,20.91867 -0.236,0.156 -0.45067,0.33066 -0.69733,0.47733 -1.88134,1.116 -3.93334,1.87467 -6.06534,2.27733 -9.40266,-7.80533 -0.92,-28.10933 -0.832,-28.31466 l -1.388,-0.59067 c -0.364,0.85333 -8.43599,20.17867 0.28,29.16133 -2.75466,0.24 -5.58933,-0.0907 -8.32399,-0.99466 -9.34934,-10.83334 -1.96267,-27.392 -1.888,-27.55867 l -1.37067,-0.62667 c -0.076,0.16534 -6.98667,15.61334 0.53067,27.07734 -0.444,-0.21734 -0.88267,-0.448 -1.31734,-0.69734 -11.74266,-6.74266 -4.82,-32.20266 -3.48133,-36.71733 l 70.12928,18.80933 v -17.852 h -1.508 v 15.88534 l -69.62528,-18.67334 -0.22133,0.68134 c -0.412,1.26933 -9.93734,31.19733 3.956,39.17466 3.57866,2.056 7.51999,3.08534 11.38666,3.08534 3.69867,0 7.328,-0.94134 10.508,-2.83067 5.504,-3.268 8.68133,-8.708 8.81333,-15.016 l 58.07062,5.80667 0.1507,-1.5 -59.74932,-5.97467"
         style="fill:#131c2f;fill-opacity:1;fill-rule:nonzero;stroke:none;stroke-width:0.133333" />
      <path
         id="path22-6"
         d="m 253.70873,268.1593 -23.58933,-6.10934 -0.0147,0.95867 c -0.005,0.428 -0.08,7.81067 1.316,13.344 l -18.004,-5.22 -0.42,1.44667 18.92534,5.48933 c 0.48,1.39067 1.07866,2.576 1.84266,3.35067 0.50267,0.51066 1.06267,0.83466 1.66267,0.988 l -0.19733,4.06533 -23.36534,-1.29467 -0.084,1.50533 23.376,1.29467 -0.23066,4.72667 1.50666,0.0733 0.50267,-10.332 c 0.932,-0.15066 1.74133,-0.58533 2.40133,-1.32666 2.78534,-3.128 1.948,-10.63867 1.91067,-10.95734 l -1.49733,0.17467 c 0.228,1.98133 0.39866,7.604 -1.54134,9.78 -0.53466,0.6 -1.18666,0.892 -1.99466,0.892 -0.496,0 -0.94534,-0.212 -1.376,-0.648 -2.59867,-2.636 -3.196,-11.94133 -3.228,-16.36667 l 20.84666,5.4 6.85467,28.07733 1.46533,-0.35733 -7.068,-28.95466"
         style="fill:#131c2f;fill-opacity:1;fill-rule:nonzero;stroke:none;stroke-width:0.133333" />
      <path
         id="path23-8"
         d="m 357.7274,240.98196 c -3.11734,0 -5.92267,1.14 -7.91467,2.95867 -1.62667,-2.716 -5.07733,-4.59467 -9.08533,-4.59467 -5.56934,0 -10.08534,3.62134 -10.08534,8.088 0,4.46667 4.516,8.08934 10.08534,8.08934 2.54666,0 4.86666,-0.764 6.64133,-2.012 1.456,3.76133 5.54,6.47466 10.35867,6.47466 6.04001,0 10.93601,-4.25333 10.93601,-9.50133 0,-5.248 -4.896,-9.50267 -10.93601,-9.50267"
         style="fill:#afe2f8;fill-opacity:1;fill-rule:nonzero;stroke:none;stroke-width:0.133333" />
      <path
         id="path24-5"
         d="m 343.02873,242.34863 c -3.59867,0 -6.44133,-2.41867 -6.57867,-2.53867 l 2.652,-3.08 c 0.024,0.02 2.452,2.04667 4.82667,1.444 2.16,-0.54666 3.59067,-3.16533 4.41067,-5.26666 l 3.78666,1.47866 c -1.70666,4.36934 -4.14266,6.972 -7.24,7.73867 -0.63333,0.156 -1.256,0.224 -1.85733,0.224"
         style="fill:#131c2f;fill-opacity:1;fill-rule:nonzero;stroke:none;stroke-width:0.133333" />
      <path
         id="path25-7"
         d="m 364.72741,244.65396 c -2.488,0 -4.5067,-0.70266 -6.03068,-2.10133 -3.568,-3.27867 -2.66933,-8.996 -2.628,-9.23733 l 4.00938,0.664 -2.00538,-0.332 2.00668,0.324 c -0.1667,1.056 -0.2427,4.12 1.376,5.596 1.588,1.44533 4.524,1.088 6.7067,0.532 l 1.0013,3.94 c -1.612,0.40933 -3.092,0.61466 -4.436,0.61466"
         style="fill:#131c2f;fill-opacity:1;fill-rule:nonzero;stroke:none;stroke-width:0.133333" />
      <path
         id="path26-6"
         d="m 321.2994,273.53263 c -1.28533,0 -2.296,-0.35867 -3.02267,-1.076 -2.35733,-2.328 -0.53866,-7.43067 -0.46,-7.64667 l 1.41734,0.51467 c -0.44267,1.22133 -1.28534,4.692 0.104,6.06 0.94533,0.93333 2.964,0.85333 5.83199,-0.23467 l 0.53334,1.412 c -1.71067,0.64667 -3.18133,0.97067 -4.404,0.97067"
         style="fill:#131c2f;fill-opacity:1;fill-rule:nonzero;stroke:none;stroke-width:0.133333" />
      <path
         id="path27-1"
         d="m 369.88341,279.2193 c -2.8493,0 -5.532,-2.81867 -5.6587,-2.95334 l 1.1,-1.03333 c 0.7987,0.84933 3.2974,2.92533 5.236,2.38933 1.736,-0.48933 2.6054,-2.98533 3.028,-4.99333 l 1.476,0.31067 c -0.7413,3.516 -2.1213,5.58 -4.1,6.13466 -0.36,0.1 -0.7226,0.14534 -1.0813,0.14534"
         style="fill:#131c2f;fill-opacity:1;fill-rule:nonzero;stroke:none;stroke-width:0.133333" />
      <path
         id="path28-8"
         d="m 347.5874,246.46596 c 0,0.98934 -0.80134,1.792 -1.79067,1.792 -0.98933,0 -1.79067,-0.80266 -1.79067,-1.792 0,-0.988 0.80134,-1.79066 1.79067,-1.79066 0.98933,0 1.79067,0.80266 1.79067,1.79066"
         style="fill:#131c2f;fill-opacity:1;fill-rule:nonzero;stroke:none;stroke-width:0.133333" />
      <path
         id="path29-9"
         d="m 353.99806,247.87396 c 0,0.98934 -0.80266,1.792 -1.79066,1.792 -0.98934,0 -1.792,-0.80266 -1.792,-1.792 0,-0.988 0.80266,-1.79066 1.792,-1.79066 0.988,0 1.79066,0.80266 1.79066,1.79066"
         style="fill:#131c2f;fill-opacity:1;fill-rule:nonzero;stroke:none;stroke-width:0.133333" />
      <path
         id="path30-2"
         d="m 362.56071,265.65396 c -3.26665,-0.52533 -5.36665,1.312 -7.59065,3.25467 -2.436,2.12933 -4.95466,4.33067 -9.488,3.95333 -0.21866,-0.0187 -0.39733,-0.064 -0.60533,-0.0907 l 2.16933,-13.232 c 4.16267,0.67333 6.48,-6.09734 6.48,-6.09734 l -10.68133,-2.35733 c 0,0 -0.5,5.96 2.75867,7.92667 l -2.21067,13.488 c -3.54533,-0.91334 -5.13333,-3.22 -6.65467,-5.47734 -1.26266,-1.872 -2.456,-3.64133 -4.636,-4.424 -5.37733,-1.92666 -10.09866,4.644 -10.29733,4.924 l 1.232,0.87067 c 0.0413,-0.06 4.24533,-5.924 8.55467,-4.37467 1.716,0.616 2.72533,2.11334 3.896,3.84667 1.80666,2.68 4.05733,6.016 9.87066,6.5 5.16,0.43867 8.056,-2.092 10.604,-4.32 2.12,-1.852 3.79335,-3.312 6.36005,-2.90267 5.6226,0.9 6.3253,7.16 6.3533,7.42667 l 1.5,-0.14933 c -0.01,-0.0773 -0.836,-7.68 -7.6147,-8.76534"
         style="fill:#131c2f;fill-opacity:1;fill-rule:nonzero;stroke:none;stroke-width:0.133333" />
      <path
         id="path31-7"
         d="m 332.60073,233.6473 -2.54533,-13.47867 c 0,0 -19.41733,12.06533 2.54533,13.47867"
         style="fill:#4a5ab2;fill-opacity:1;fill-rule:nonzero;stroke:none;stroke-width:0.133333" />
      <path
         id="path32-9"
         d="m 378.41011,242.78996 13.668,-6.78666 c 0,0 2.9226,21.96266 -13.668,6.78666"
         style="fill:#4a5ab2;fill-opacity:1;fill-rule:nonzero;stroke:none;stroke-width:0.133333" />
    </g>
  </g>
</svg>
