<?xml version="1.0" encoding="UTF-8" standalone="no"?>
<!-- Created with Inkscape (http://www.inkscape.org/) -->

<svg
   version="1.1"
   id="svg1"
   width="1513.9161"
   height="2256.8333"
   viewBox="0 0 1513.9162 2256.8333"
   sodipodi:docname="74223809_DJV MAR 981-17.svg"
   inkscape:version="1.4.3 (0d15f75, 2025-12-25)"
   xmlns:inkscape="http://www.inkscape.org/namespaces/inkscape"
   xmlns:sodipodi="http://sodipodi.sourceforge.net/DTD/sodipodi-0.dtd"
   xmlns="http://www.w3.org/2000/svg"
   xmlns:svg="http://www.w3.org/2000/svg">
  <defs
     id="defs1" />
  <sodipodi:namedview
     id="namedview1"
     pagecolor="#ffffff"
     bordercolor="#000000"
     borderopacity="0.25"
     inkscape:showpageshadow="2"
     inkscape:pageopacity="0.0"
     inkscape:pagecheckerboard="0"
     inkscape:deskcolor="#d1d1d1"
     inkscape:zoom="0.5553221"
     inkscape:cx="757.21819"
     inkscape:cy="636.56749"
     inkscape:window-width="2560"
     inkscape:window-height="1346"
     inkscape:window-x="-11"
     inkscape:window-y="-11"
     inkscape:window-maximized="1"
     inkscape:current-layer="g1">
    <inkscape:page
       x="0"
       y="0"
       inkscape:label="1"
       id="page1"
       width="1513.9163"
       height="2256.8333"
       margin="0"
       bleed="0" />
  </sodipodi:namedview>
  <g
     id="g1"
     inkscape:groupmode="layer"
     inkscape:label="1"
     transform="translate(-657.25468,-285.79342)">
    <g
       id="group-R5">
      <path
         id="path2"
         d="M 11113.1,11545.2 9207.74,11851 c -1.89,0.3 -3.72,-0.2 -5.15,-1.5 -1.4,-1.2 -2.15,-3.1 -2.07,-4.9 l 11.71,-246.1 -2186.47,472.4 c -3.31,0 -6.03,-2.6 -6.23,-5.9 l -26.82,-495.1 -536.61,-3874.1 -649.47,-912.7 c -0.6,-0.9 -1,-1.9 -1.09,-3 L 5381.9,2990.9 c -0.36,-3.3 1.88,-6.2 5.12,-6.8 l 424.02,-73.9 c 0.37,-0.1 0.74,-0.1 1.07,-0.1 2.9,0 5.48,2 6.09,4.9 l 975.05,4576.6 1022.45,3441.8 1222.18,162.9 -350.42,-2923.9 c -0.39,-3.1 1.63,-6.1 4.68,-6.8 3.26,-1.1 6.21,0.9 7.33,3.8 l 1099.23,2855.3 1239.2,66.8 c 2.9,0.1 5.4,2.3 5.8,5.2 l 74.6,441.4 c 0.3,1.6 -0.1,3.3 -1.1,4.6 -1,1.3 -2.4,2.3 -4.1,2.5"
         style="fill:#37225a;fill-opacity:1;fill-rule:nonzero;stroke:none"
         transform="matrix(0.13333333,0,0,-0.13333333,0,2829.3333)" />
      <path
         id="path3"
         d="m 9772.23,2870 c -3.17,0.3 -6.36,-2.1 -6.78,-5.5 l -5.51,-47 -283.77,22.4 c -3.68,-0.3 -6.42,-2.3 -6.7,-5.7 -8.59,-100.4 -17.9,-200.7 -17.9,-200.7 -0.14,-1.7 0.36,-3.3 1.44,-4.6 1.07,-1.3 2.62,-2.1 4.28,-2.2 l 294.72,-23.3 h 0.48 c 1.48,0 2.92,0.6 4.07,1.5 1.24,1.1 2.02,2.6 2.14,4.3 l 19.15,254.1 c 0.27,3.4 -2.24,6.4 -5.62,6.7"
         style="fill:#b5bce5;fill-opacity:1;fill-rule:nonzero;stroke:none"
         transform="matrix(0.13333333,0,0,-0.13333333,0,2829.3333)" />
      <path
         id="path4"
         d="m 8430.61,2801.5 h -0.1 c -3.34,0 -6.12,-2.6 -6.24,-6 l -1.75,-47 h -284.68 c -3.44,0 -6.21,-2.8 -6.23,-6.2 -0.66,-100.8 -2.05,-201.5 -2.05,-201.5 -0.02,-1.6 0.64,-3.2 1.8,-4.5 1.17,-1.1 2.75,-1.8 4.44,-1.8 h 295.63 c 1.66,0 3.25,0.7 4.41,1.8 1.17,1.2 1.83,2.8 1.83,4.4 l -0.92,254.6 c -0.03,3.4 -2.74,6.2 -6.14,6.2"
         style="fill:#b5bce5;fill-opacity:1;fill-rule:nonzero;stroke:none"
         transform="matrix(0.13333333,0,0,-0.13333333,0,2829.3333)" />
      <path
         id="path5"
         d="m 11023.9,15917.8 -545.5,356.1 c -1.7,1.1 -3.9,1.1 -5.8,0.3 -1.9,-0.7 -3.3,-2.6 -3.8,-4.6 l -385.8,-1770.7 -916.91,1268.7 20.69,143.4 c 0.38,2.6 -0.91,5.1 -3.23,6.4 l -491.92,264.8 -34.47,18.4 -166.92,146.4 138.9,440.9 c 0.57,1.8 0.29,3.8 -0.75,5.3 -1.03,1.6 -2.74,2.6 -4.61,2.7 l -324.75,31 c -1.66,0.5 -3.36,-0.4 -4.65,-1.5 -1.29,-1.1 -2.07,-2.7 -2.16,-4.4 l -16.71,-296 c -0.08,-1.6 0.46,-3.2 1.5,-4.4 l 369.75,-429.7 c -136.84,84.5 -286.24,176.7 -428.63,264.2 l 50.99,375.1 c 0.36,2.7 -1.17,5.4 -3.75,6.5 l -617.29,261.4 c -1.63,0.7 -3.48,0.7 -5.02,-0.1 -1.6,-0.7 -2.81,-2.1 -3.36,-3.7 l -92.33,-284.4 c -0.39,-1.3 -0.39,-2.7 0.02,-3.9 224.95,-685.4 1225.31,-3817.8 1256.58,-3915.9 l -372.05,-948.2 -378.17,56.6 c -3.24,0.6 -6.06,-1.5 -6.94,-4.5 -0.83,-3 0.7,-6.2 3.6,-7.4 l 246.82,-103.1 920.31,-198.9 c 0.44,-0.1 0.88,-0.2 1.32,-0.2 1.45,0 2.89,0.6 4.01,1.5 1.5,1.3 2.32,3.1 2.22,5.1 l -85.63,1796.9 13.19,1191.1 785.15,-767.8 496,-504.7 c 1.6,-1.6 3.9,-2.2 6.2,-1.6 2.2,0.6 3.8,2.4 4.3,4.6 l 582.2,2601.8 c 0.6,2.5 -0.5,5.1 -2.6,6.5"
         style="fill:#b5bce5;fill-opacity:1;fill-rule:nonzero;stroke:none"
         transform="matrix(0.13333333,0,0,-0.13333333,0,2829.3333)" />
      <path
         id="path6"
         d="m 7304.18,15548.9 -162.33,-142.8 c -1.93,-1.7 -2.61,-4.4 -1.75,-6.8 l 3.72,-10.4 -186.44,-145.2 c -1.75,-1.4 -2.62,-3.5 -2.35,-5.8 l 18.88,-146.7 c 0.31,-2.5 2.16,-4.6 4.65,-5.3 0.51,-0.1 1.02,-0.1 1.53,-0.1 1.98,0 3.86,0.9 5.05,2.5 l 328.2,452.3 c 1.87,2.6 1.51,6.1 -0.85,8.3 -2.31,2.1 -5.95,2.1 -8.31,0"
         style="fill:#5b42a3;fill-opacity:1;fill-rule:nonzero;stroke:none"
         transform="matrix(0.13333333,0,0,-0.13333333,0,2829.3333)" />
      <path
         id="path7"
         d="m 7187.71,3247.4 c -3.29,1.1 -6.63,-1 -7.62,-4.3 l -13.52,-45.5 -275.73,70.8 c -3.44,0.9 -6.7,-1.2 -7.61,-4.5 -25.67,-97.5 -52.08,-194.7 -52.08,-194.7 -0.44,-1.6 -0.02,-3.3 0.81,-4.8 0.82,-1.4 2.36,-2.5 3.97,-3 0.39,-0.1 0.78,-0.1 1.17,-0.1 l 284.87,-73.2 c 0.51,-0.2 1.05,-0.2 1.56,-0.2 1.12,0 2.21,0.3 3.19,0.9 1.41,0.8 2.43,2.2 2.85,3.8 l 62.53,247.3 c 0.83,3.2 -1.11,6.6 -4.39,7.5"
         style="fill:#a494d1;fill-opacity:1;fill-rule:nonzero;stroke:none"
         transform="matrix(0.13333333,0,0,-0.13333333,0,2829.3333)" />
      <path
         id="path8"
         d="m 11304.2,12274.2 -2121.04,76.5 c -1.53,-0.7 -3.42,-0.6 -4.64,-1.8 -1.23,-1.2 -1.88,-3 -1.81,-4.7 l 23.81,-499.6 c 0.13,-3 2.33,-5.5 5.23,-5.9 l 2175.75,-349.1 c 0.3,-0.1 0.7,-0.1 1,-0.1 1.6,0 3.1,0.6 4.3,1.7 1.4,1.3 2.1,3.2 1.9,5.2 l -78.6,772.2 c -0.3,3.1 -2.8,5.5 -5.9,5.6"
         style="fill:#a494d1;fill-opacity:1;fill-rule:nonzero;stroke:none"
         transform="matrix(0.13333333,0,0,-0.13333333,0,2829.3333)" />
      <path
         id="path9"
         d="m 5824.44,2974.8 c -3.29,0.3 -6.58,-1.5 -7.26,-4.8 l -9.91,-46.5 -280.44,48.8 c -3.68,0.4 -6.62,-1.6 -7.21,-5 -17.96,-99.2 -36.61,-198.1 -36.64,-198.1 -0.31,-1.7 0.29,-3.5 1.29,-4.9 1.02,-1.4 2.75,-2.3 4.46,-2.5 0.18,0 0.34,-0.1 0.51,-0.1 l 290.06,-50.6 c 0.37,-0.1 0.71,-0.1 1.07,-0.1 1.27,0 2.53,0.4 3.6,1.1 1.35,1 2.27,2.5 2.54,4.1 l 42.9,251.4 c 0.58,3.4 -1.63,6.6 -4.97,7.2"
         style="fill:#a494d1;fill-opacity:1;fill-rule:nonzero;stroke:none"
         transform="matrix(0.13333333,0,0,-0.13333333,0,2829.3333)" />
      <path
         id="path10"
         d="m 8169.69,13185.6 273.53,19.5 -57.13,-67.3 -224.09,-17.7 -322.55,-30 331.18,-17 252.71,-166.4 -80.87,-9.1 -71.43,27.8 -134.29,65.8 -293.99,-12.5 269.62,-25.8 199.81,-137.5 -81.73,-1 -160.59,70.6 -244.27,-11.4 167.01,-130.4 -4.09,-127.4 -51.89,19.3 9.38,78.2 -166,87.8 -401.02,-75.5 -100.11,37.8 -203.62,88.9 82.6,181.4 37.94,-27.3 615.37,164.9 z m -2490.56,1054.2 1282.09,999 190,148 -5.25,14.6 162.33,142.9 -328.21,-452.3 244.68,-1882.3 -80.39,-155.9 z m 1813.72,2259.4 -669.34,-201.7 0.02,-0.1 -1676.51,-2089.8 -217.61,-235.1 1998.68,-1338.1 -254.55,-493.5 352.22,-76.2 h 0.11 l 1272.67,-275.1 -245.72,102.8 383.1,-57.4 374.68,954.9 c 0,0 -1027.28,3217.2 -1257.28,3918 l -60.47,-208.7"
         style="fill:#a494d1;fill-opacity:1;fill-rule:nonzero;stroke:none"
         transform="matrix(0.13333333,0,0,-0.13333333,0,2829.3333)" />
      <path
         id="path11"
         d="m 8911.7,17906.6 248.23,-429.1 -37.71,-128.4 c -0.69,-2.4 0.07,-5 1.97,-6.6 l 335.19,-282.4 c 1.18,-1 2.59,-1.5 4.03,-1.5 1.27,0 2.56,0.4 3.65,1.2 l 9.36,6.8 c 39.1,28.2 196.83,142.4 391.2,283.6 h 0.03 c 78.82,57.3 163.65,119.1 249.05,181.4 112.2,81.8 225.3,164.5 327,239.2 1.9,1.4 2.8,3.7 2.5,6.1 l -97.9,585.4 c -0.3,1.7 -1.2,3.2 -2.7,4.1 l -392.77,263.1 -80.73,35.3 c -1.19,0.6 -2.53,0.8 -3.77,0.4 l -983.96,-202.7 c -3.03,-0.6 -5.15,-3.4 -4.98,-6.5 l 31.48,-546.6 c 0.08,-1 0.34,-2 0.83,-2.8"
         style="fill:#f25d23;fill-opacity:1;fill-rule:nonzero;stroke:none"
         transform="matrix(0.13333333,0,0,-0.13333333,0,2829.3333)" />
      <path
         id="path12"
         d="m 7946.07,2363.2 c -0.6,0.8 -1.38,1.3 -2.28,1.7 l -437.49,199.6 -378.07,433.7 c -0.83,1 -1.92,1.7 -3.14,2 l -285.95,73.4 c -2.99,0.9 -5.82,-0.6 -7.13,-3.2 l -0.05,-0.1 c -0.06,-0.1 -0.1,-0.2 -0.14,-0.4 l -139.59,-326.3 c -1.32,-3 0,-6.5 2.99,-8 l 364.95,-176.9 401.19,-277.7 c 0.9,-0.6 1.97,-1 3.06,-1.1 l 570.65,-45.1 h 0.49 c 2.28,0 4.4,1.3 5.49,3.4 1.18,2.2 0.93,4.8 -0.63,6.8 l -94.35,118.2"
         style="fill:#f25d23;fill-opacity:1;fill-rule:nonzero;stroke:none"
         transform="matrix(0.13333333,0,0,-0.13333333,0,2829.3333)" />
      <path
         id="path13"
         d="m 11122.2,16276 -9.4,51.8 c -0.4,2.7 -2.6,4.8 -5.3,5.1 l -227.9,29.8 c -1,0.2 -2,0 -2.9,-0.3 l -85.3,-29.1 -113.2,26.7 c -1.7,0.3 -3.5,0 -5,-0.9 -1.5,-1.1 -2.4,-2.7 -2.6,-4.4 l -23.7,-201.6 c -0.3,-2.3 0.8,-4.7 2.8,-5.9 l 363.7,-237.4 -578.7,-2586.4 -488.08,496.7 -795.68,778 c -1.8,1.8 -4.46,2.4 -6.75,1.3 -2.31,-0.9 -3.82,-3.1 -3.85,-5.7 l -13.35,-1206 49.72,-1043.5 c 0.17,-3.3 2.78,-5.9 6.01,-6 l 2664.48,-96.1 h 0.2 c 1.8,0 3.6,0.8 4.8,2.1 1.2,1.5 1.7,3.4 1.4,5.2 l -358.7,1974.8 1099.1,-616.1 c 2,-1.2 4.6,-1 6.6,0.3 l 118.4,82.5 c 2.8,1.9 3.5,5.6 1.8,8.4 L 11122.2,16276"
         style="fill:#f25d23;fill-opacity:1;fill-rule:nonzero;stroke:none"
         transform="matrix(0.13333333,0,0,-0.13333333,0,2829.3333)" />
      <path
         id="path14"
         d="m 9153.4,15766.9 c -0.25,-1.6 0.16,-3.3 1.12,-4.6 l 926.48,-1282 c 1.2,-1.7 3.1,-2.6 5.1,-2.6 0.4,0 0.8,0.1 1.2,0.2 2.5,0.5 4.4,2.3 4.9,4.7 l 388.9,1784.7 23.2,137.9 c 0.3,1.6 -0.1,3.3 -1.1,4.7 -1,1.3 -2.5,2.2 -4.2,2.5 l -1029.06,134.4 c -1.12,0.1 -2.34,-0.1 -3.42,-0.5 l -780.89,-358.8 c -2.39,-1.1 -3.82,-3.6 -3.6,-6.2 l 0.44,-5.1 c 0.17,-2.1 1.41,-4 3.26,-5 l 488.08,-262.8 -20.41,-141.5"
         style="fill:#f25d23;fill-opacity:1;fill-rule:nonzero;stroke:none"
         transform="matrix(0.13333333,0,0,-0.13333333,0,2829.3333)" />
      <path
         id="path15"
         d="m 6545.36,2271.1 c -0.68,0.8 -1.51,1.3 -2.41,1.7 l -451.93,164.5 -306.41,284.5 c -0.88,0.8 -1.97,1.4 -3.16,1.6 l -290.84,50.7 c -2.64,0.3 -5.43,-0.8 -6.65,-3.3 l -0.02,-0.1 c -0.13,-0.2 -0.25,-0.5 -0.36,-0.8 l -113.51,-336.2 c -1.05,-3.2 0.54,-6.6 3.66,-7.8 l 378.56,-148.1 317.14,-127.1 c 0.73,-0.3 1.52,-0.4 2.32,-0.4 h 572.39 c 2.48,0 4.73,1.4 5.72,3.7 0.98,2.3 0.54,4.9 -1.17,6.7 l -103.33,110.4"
         style="fill:#f25d23;fill-opacity:1;fill-rule:nonzero;stroke:none"
         transform="matrix(0.13333333,0,0,-0.13333333,0,2829.3333)" />
      <path
         id="path16"
         d="m 10475.3,18459.7 -67.4,-28.7 -455.09,198.5 c -2.93,1.4 -6.4,0.1 -7.97,-2.7 -1.54,-2.9 -0.68,-6.4 2.03,-8.2 l 389.63,-261 97.4,-582.8 c 0.3,-2.1 1.8,-3.9 3.8,-4.7 0.7,-0.3 1.5,-0.5 2.3,-0.5 1.3,0 2.6,0.4 3.7,1.2 151,110.9 257.8,190.2 317.4,235.8 58.5,44.8 58.9,47.3 59.4,50.6 3.2,19.1 -210.5,259.4 -338.1,400.9 -1.8,2 -4.7,2.7 -7.1,1.6"
         style="fill:#f5761d;fill-opacity:1;fill-rule:nonzero;stroke:none"
         transform="matrix(0.13333333,0,0,-0.13333333,0,2829.3333)" />
      <path
         id="path17"
         d="m 10687.9,2311.4 c -0.8,0.9 -1.8,1.6 -2.9,2 l -932.02,302.5 -294.71,23.2 c -3.63,0.3 -6.45,-2.3 -6.7,-5.7 l -28.03,-355.1 -36.14,38.6 c -0.82,1 -1.92,1.6 -3.09,1.8 L 8431.43,2547 H 8135.8 c -3.44,0 -6.24,-2.8 -6.24,-6.3 v -369 c 0,-3.5 2.8,-6.3 6.24,-6.3 h 1379.08 c 2.48,0 4.73,1.5 5.73,3.8 0.97,2.3 0.53,4.9 -1.18,6.7 l -76.43,81.7 1360.1,-107.3 h 0.5 c 2.3,0 4.4,1.2 5.5,3.3 1.1,2.2 0.9,4.9 -0.7,6.8 l -120.5,151"
         style="fill:#f5761d;fill-opacity:1;fill-rule:nonzero;stroke:none"
         transform="matrix(0.13333333,0,0,-0.13333333,0,2829.3333)" />
      <path
         id="path18"
         d="m 16278.3,16461.8 -161.8,20.1 c -2.5,0.6 -4.4,-0.6 -5.7,-2.3 l -435.5,-569.8 c -1.4,-1.8 -1.7,-4.2 -0.7,-6.3 0.9,-2.1 2.9,-3.5 5.1,-3.7 l 36.9,-3 0.1,-0.2 c 0.4,-2.7 2.7,-4.8 5.4,-5.1 l 90,-9.8 c 0.3,0 0.5,0 0.7,0 1.9,0 3.6,0.8 4.8,2.3 l 464.8,567.7 c 1.4,1.7 1.8,4.1 0.9,6.3 -0.8,2.1 -2.7,3.5 -5,3.8"
         style="fill:#f5761d;fill-opacity:1;fill-rule:nonzero;stroke:none"
         transform="matrix(0.13333333,0,0,-0.13333333,0,2829.3333)" />
      <path
         id="path19"
         d="m 16116.5,16481.9 -111.3,13.8 c -2.3,0.5 -4.3,-0.6 -5.6,-2.3 l -462.6,-572.1 c -1.4,-1.8 -1.8,-4.3 -0.8,-6.4 0.9,-2.1 2.9,-3.6 5.2,-3.8 l 138.3,-11.3 h 0.6 c 1.9,0 3.7,0.9 4.9,2.4 l 435.5,569.7 c 1.3,1.9 1.7,4.2 0.8,6.3 -0.9,2 -2.8,3.4 -5,3.7"
         style="fill:#37225a;fill-opacity:1;fill-rule:nonzero;stroke:none"
         transform="matrix(0.13333333,0,0,-0.13333333,0,2829.3333)" />
      <path
         id="path20"
         d="m 16010.2,16491.9 c -0.8,2.1 -2.8,3.5 -5,3.8 l -161.9,20.1 c -2.2,0.5 -4.3,-0.5 -5.6,-2.2 l -440.3,-540.7 c -1.9,-2.3 -1.9,-5.6 0,-7.9 1.9,-2.4 5.2,-2.9 7.8,-1.6 l 184,97.4 13.1,-56.1 -65.3,-83.5 c -2.1,-2.7 -1.7,-6.6 1,-8.7 1.2,-0.9 2.5,-1.4 3.9,-1.4 1.8,0 3.6,0.8 4.8,2.4 l 462.6,572.1 c 1.4,1.8 1.7,4.2 0.9,6.3"
         style="fill:#f5761d;fill-opacity:1;fill-rule:nonzero;stroke:none"
         transform="matrix(0.13333333,0,0,-0.13333333,0,2829.3333)" />
      <path
         id="path21"
         d="m 14962.2,15612.8 -2379,-320.5 -1470.7,1027.5 c -2.1,1.5 -4.9,1.5 -7,0.2 -2.1,-1.4 -3.2,-3.9 -2.8,-6.4 l 7.5,-41 c 0.1,-0.7 0.4,-1.5 0.8,-2.1 l 1599.2,-2577.7 c 0.9,-1.5 2.4,-2.5 4,-2.9 0.5,0 0.9,-0.1 1.3,-0.1 1.2,0 2.5,0.4 3.6,1.1 l 2183.8,1524 c 1.4,1 2.4,2.4 2.7,4.1 l 63.4,386 v 0.1 c 0.6,2 0,4.2 -1.4,5.7 -1.3,1.6 -3.4,2.4 -5.4,2"
         style="fill:#f5761d;fill-opacity:1;fill-rule:nonzero;stroke:none"
         transform="matrix(0.13333333,0,0,-0.13333333,0,2829.3333)" />
      <path
         id="path22"
         d="m 11105.6,16411.9 -47.8,11.2 c -1.1,0.3 -2.3,0.3 -3.4,-0.2 l -177.7,-60.5 c -2.7,-1 -4.4,-3.7 -4.1,-6.5 0.3,-2.9 2.5,-5.2 5.4,-5.6 l 226.3,-29.6 c 0.3,0 0.6,0 0.8,0 1.5,0 3,0.5 4.2,1.5 1.3,1.2 2.1,3 2.1,4.8 l -1,78.9 c -0.1,2.9 -2.1,5.3 -4.8,6"
         style="fill:#ef3651;fill-opacity:1;fill-rule:nonzero;stroke:none"
         transform="matrix(0.13333333,0,0,-0.13333333,0,2829.3333)" />
      <path
         id="path23"
         d="m 10834.2,16819.6 -33.1,24.3 c -1.8,1.4 -4.3,1.6 -6.3,0.7 -2.1,-1 -3.5,-3 -3.6,-5.2 -2.9,-41.5 -9.4,-53.9 -13.1,-57.7 -6.1,-6.3 -22.6,-14.8 -66.3,-19.5 -2,-0.2 -3.9,-1.5 -4.8,-3.3 -1.3,1.6 -3.4,2.5 -5.4,2.4 -30.2,-2.8 -69,-3.4 -115.3,-2 h -0.1 c -1.9,0 -3.7,-0.9 -4.9,-2.3 -1.2,-1.6 -1.7,-3.5 -1.2,-5.4 l 29.1,-126.1 c 0.5,-2.1 2.1,-3.8 4.2,-4.5 0.6,-0.2 1.3,-0.3 1.9,-0.3 1.5,0 3,0.5 4.1,1.6 l 215.2,187.6 c 1.4,1.2 2.2,3 2.1,4.9 -0.1,1.9 -1,3.6 -2.5,4.8"
         style="fill:#ef3651;fill-opacity:1;fill-rule:nonzero;stroke:none"
         transform="matrix(0.13333333,0,0,-0.13333333,0,2829.3333)" />
      <path
         id="path24"
         d="m 10183.6,16794.7 c -98.5,12.2 -176.5,23.8 -197.84,27.1 l 28.44,315.8 c 0.2,1.8 -0.4,3.6 -1.7,4.8 l -8.3,8.9 c -1.6,1.6 -3.8,2.1 -5.96,1.8 -2.17,-0.5 -3.89,-2.1 -4.56,-4.3 -22.26,-71.2 -27.94,-151 -31.71,-217.6 l -99.15,99.8 c -1.97,1.9 -4.92,2.4 -7.38,1.1 -2.43,-1.3 -3.73,-4.1 -3.16,-6.8 12.56,-60 22.77,-121.1 30.32,-181.9 l -174.61,123.7 c -2.12,1.6 -4.97,1.6 -7.14,0.1 -2.15,-1.5 -3.16,-4.1 -2.51,-6.7 l 31.65,-124.8 -116.6,120.2 c -1.41,1.4 -3.46,2.2 -5.33,1.8 -1.97,-0.3 -3.68,-1.4 -4.63,-3.2 l -74.9,-137.9 c -0.33,-0.6 -0.54,-1.3 -0.66,-1.9 l -50.02,-274.9 c -0.29,-1.7 0.1,-3.4 1.1,-4.8 1.02,-1.4 2.53,-2.3 4.24,-2.6 l 698.01,-91.1 c 0.2,0 0.5,0 0.8,0 1.5,0 2.9,0.5 4.1,1.5 1.3,1.2 2.1,2.9 2.1,4.7 l 0.9,341 c 0,3.2 -2.3,5.8 -5.5,6.2"
         style="fill:#ef3651;fill-opacity:1;fill-rule:nonzero;stroke:none"
         transform="matrix(0.13333333,0,0,-0.13333333,0,2829.3333)" />
      <path
         id="path25"
         d="m 8288.1,16526.8 35.01,619.8 c 0.09,1.8 -0.59,3.5 -1.86,4.8 -1.29,1.3 -2.75,2 -4.84,1.8 -61.73,-4.5 -107.48,-7.1 -122.32,-7.9 l -70.5,290.1 c -0.73,3.1 -3.27,5.2 -6.74,4.8 l -362.86,-39.7 -1.9,1.3 c -1.7,1.1 -3.77,1.3 -5.72,0.7 -1.9,-0.8 -3.31,-2.4 -3.82,-4.3 l -102.95,-404.3 c -0.75,-3 0.78,-6.1 3.6,-7.3 l 612.91,-259.5 -50.89,-374.4 c -0.32,-2.4 0.83,-4.8 2.92,-6.1 155.42,-95.5 319.37,-196.7 466.36,-287.5 1.02,-0.7 2.17,-0.9 3.28,-0.9 1.79,0 3.52,0.7 4.76,2.2 2,2.3 1.97,5.8 -0.02,8 l -394.42,458.4"
         style="fill:#ef3651;fill-opacity:1;fill-rule:nonzero;stroke:none"
         transform="matrix(0.13333333,0,0,-0.13333333,0,2829.3333)" />
      <path
         id="path26"
         d="m 8442.78,13211.4 -273.35,-19.5 -359.87,-14.5 -612.51,-164.3 -35.53,25.7 c -1.5,1.1 -3.4,1.5 -5.25,1 -1.81,-0.5 -3.29,-1.8 -4.07,-3.5 l -82.61,-181.4 c -0.67,-1.5 -0.75,-3.3 -0.15,-4.8 0.59,-1.6 1.81,-2.9 3.34,-3.5 l 203.9,-89.1 100.13,-37.8 c 1.09,-0.4 2.28,-0.5 3.33,-0.3 l 398.87,75.2 160.3,-84.8 -8.87,-74 c -0.34,-2.8 1.31,-5.5 4.01,-6.5 l 51.9,-19.3 c 0.7,-0.3 1.43,-0.4 2.17,-0.4 1.21,0 2.43,0.3 3.47,1 1.66,1.2 2.69,3 2.76,5 l 4.09,127.4 c 0.05,2 -0.83,3.9 -2.38,5.1 l -153.76,120.1 226.01,10.6 159.24,-70.1 c 0.8,-0.3 1.58,-0.4 2.59,-0.5 l 81.73,0.9 c 2.72,0.1 5.08,1.8 5.88,4.5 0.79,2.5 -0.19,5.4 -2.43,6.9 l -199.8,137.6 c -0.88,0.6 -1.88,0.9 -2.95,1 l -179.46,17.2 201.92,8.6 133.35,-65.3 71.43,-27.8 c 0.94,-0.4 1.94,-0.6 2.96,-0.4 l 80.88,9.1 c 2.61,0.3 4.75,2.2 5.36,4.8 0.61,2.5 -0.44,5.2 -2.63,6.6 l -252.72,166.4 c -0.92,0.6 -1.99,0.9 -3.11,1 l -244.88,12.6 236.42,21.9 224.09,17.8 c 1.66,0.2 3.2,0.9 4.27,2.2 l 57.13,67.3 c 1.63,1.9 1.94,4.6 0.8,6.9 -1.12,2.2 -3.61,3.5 -6,3.4"
         style="fill:#ef3651;fill-opacity:1;fill-rule:nonzero;stroke:none"
         transform="matrix(0.13333333,0,0,-0.13333333,0,2829.3333)" />
      <path
         id="path27"
         d="m 15728.1,15903.7 c -0.6,2.8 -2.8,4.9 -5.7,5.1 l -168.5,13.8 60.1,76.8 c 1.1,1.5 1.5,3.4 1.1,5.2 l -15.6,67 c -0.5,1.9 -1.7,3.4 -3.5,4.2 -1.8,0.8 -3.8,0.8 -5.5,-0.1 l -332.3,-176 c -0.7,-0.3 -1.3,-0.8 -1.8,-1.4 l -235.2,-270.7 -59.8,-15 c -2.3,-0.6 -4.2,-2.6 -4.6,-5 l -41.5,-252.5 c -0.3,-2.2 0.5,-4.4 2.2,-5.8 1.1,-0.9 2.5,-1.4 4,-1.4 0.7,0 1.5,0.1 2.2,0.4 l 128.9,49.2 443,81.2 c 2,0.4 3.7,1.7 4.6,3.6 l 84.3,189.2 156.7,143.4 c 1.5,1.4 2.3,3.6 1.9,5.7 l -15,83.1"
         style="fill:#f14664;fill-opacity:1;fill-rule:nonzero;stroke:none"
         transform="matrix(0.13333333,0,0,-0.13333333,0,2829.3333)" />
      <path
         id="path28"
         d="m 11868.4,16970.1 -363.4,-72.9 -388,-54 -197.4,53.7 c -2,0.7 -4.1,0.1 -5.7,-1.3 l -116.7,-101.8 c 3,11 5.1,25.7 6.4,44.7 8.8,126.2 -20,433.5 -85.6,913.4 -0.4,2.7 -2.3,4.8 -5,5.3 -2.4,0.5 -5.2,-0.6 -6.6,-2.9 -23.1,-38.8 -47,-77.8 -71.1,-116.4 -10.2,45.8 -23.3,91.3 -39.4,135.2 -0.9,2.5 -3.1,4.1 -5.7,4.1 h -0.1 c -2.6,0 -4.9,-1.5 -5.8,-3.9 l -93.4,-231.7 c -27.1,49 -59.7,95.1 -97.2,137 -1.4,1.5 -3.4,2.5 -5.4,2 -2,-0.2 -3.7,-1.4 -4.7,-3.2 -49.1,-89.7 -103,-175.9 -144.4,-241.1 -4.3,-6.6 -8.7,-13 -13.6,-19.2 -9.3,16.7 -47.8,80.9 -108.9,124.6 -2.3,1.6 -5.2,1.6 -7.3,-0.1 -85.4,-62.2 -170.28,-123.9 -249.11,-181.2 -2.19,-1.6 -3.09,-4.5 -2.24,-7 22.18,-66.8 68.3,-137.7 137.05,-210.7 l 6.5,-6.8 -28.8,-318.9 c -0.28,-3.2 2,-6.1 5.27,-6.6 0.88,-0.2 88.33,-13.7 204.03,-28.1 114.3,-14.2 277.1,-32 403.9,-35.5 15.5,-0.5 30.3,-0.7 44.1,-0.7 27.8,0 52.1,0.9 72.5,2.7 3.7,0.3 7.2,0.6 10.6,1 16.6,1.8 30.6,4.2 42,7.3 l -245.5,-214 c -1.2,-1 -2,-2.5 -2.1,-4.2 l -5,-69.4 -33.8,-200.2 c -0.5,-3 1.2,-5.7 4.1,-6.7 l 176.8,-115.4 c 1,-0.7 2.2,-1 3.4,-1 0.9,0 1.8,0.2 2.7,0.5 1.9,1 3.3,2.8 3.5,5 l 22.9,194.6 108.1,-25.6 c 1.1,-0.2 2.3,-0.2 3.4,0.2 l 263,89.7 170.2,-40 c 2.6,-0.5 5.1,0.3 6.6,2.5 l 192.9,276.7 c 1.1,1.5 1.4,3.5 0.9,5.3 -0.5,1.8 -1.8,3.3 -3.5,4 l -158.1,67.1 296.2,76 290.1,75.4 c 2.2,0.6 4,2.3 4.5,4.6 l 19.2,80.3 c 0.5,2.1 -0.1,4.2 -1.6,5.8 -1.5,1.5 -3.8,2.1 -5.7,1.8"
         style="fill:#f14664;fill-opacity:1;fill-rule:nonzero;stroke:none"
         transform="matrix(0.13333333,0,0,-0.13333333,0,2829.3333)" />
      <path
         id="path29"
         d="m 8511.91,18395 -478.78,8.4 h -0.08 c -1.76,0 -3.42,-0.7 -4.61,-2.1 -1.21,-1.3 -1.78,-3 -1.6,-4.8 l 55.36,-511.7 1.83,-14.6 c -63.21,18.6 -119.83,11 -168.28,-22.6 -44.41,-30.8 -66.55,-75.7 -62.39,-126.5 8.05,-97.5 105.77,-198.9 269.18,-280.3 l -5.69,-0.6 c -1.79,-0.2 -3.39,-1.1 -4.44,-2.6 -1.02,-1.5 -1.37,-3.3 -0.95,-5.1 l 71.71,-295.2 c 0.69,-2.8 3.2,-4.7 6.07,-4.7 h 0.32 c 0.51,0 52.21,2.7 127.76,8.1 284.91,20.8 631.21,59.6 663.17,126.5 25.57,53.6 -125.87,421.3 -463.04,1124.2 -1.02,2.2 -3.16,3.5 -5.54,3.6"
         style="fill:#f14664;fill-opacity:1;fill-rule:nonzero;stroke:none"
         transform="matrix(0.13333333,0,0,-0.13333333,0,2829.3333)" />
      <path
         id="path30"
         d="m 11037.3,11104 -857.5,-46.2 c -3.1,-0.2 -5.6,-2.7 -5.9,-5.9 L 9961.8,7634.6 9397.78,6660.1 c -0.51,-1 -0.8,-2 -0.83,-3.1 l -66.81,-3812.2 c -0.06,-3.3 2.45,-6.1 5.74,-6.4 l 429.08,-33.8 h 0.49 c 3.14,0 5.83,2.3 6.19,5.5 l 542.06,4647.8 730,3638.6 c 0.4,1.9 -0.1,3.9 -1.4,5.3 -1.3,1.5 -3.3,2.1 -5,2.2"
         style="fill:#4d274f;fill-opacity:1;fill-rule:nonzero;stroke:none"
         transform="matrix(0.13333333,0,0,-0.13333333,0,2829.3333)" />
      <path
         id="path31"
         d="m 9044.19,11109.8 -851.15,-113.5 c -3.14,-0.5 -5.45,-3.1 -5.4,-6.3 L 8244.9,7566.6 7759.29,6550.7 c -0.47,-1 -0.67,-2 -0.62,-3.1 l 233.21,-3805.7 c 0.21,-3.3 2.94,-5.9 6.24,-5.9 h 430.42 c 3.35,0 6.11,2.7 6.23,6 l 174.83,4676.1 441.61,3684.7 c 0.25,1.9 -0.44,3.8 -1.81,5.2 -1.33,1.4 -3.34,2 -5.21,1.8"
         style="fill:#4d274f;fill-opacity:1;fill-rule:nonzero;stroke:none"
         transform="matrix(0.13333333,0,0,-0.13333333,0,2829.3333)" />
      <path
         id="path32"
         d="m 8266.3,18386.8 245.42,-4.3 h 0.11 c 3.03,0 5.64,2.2 6.16,5.2 l 111.37,681.6 c 0.35,2.1 -0.41,4.2 -2.03,5.7 -1.58,1.4 -3.86,1.9 -5.84,1.3 l -290.88,-83.1 c -2.51,-0.7 -4.29,-2.9 -4.52,-5.5 -12.24,-144.4 -29.86,-291.4 -46.91,-433.5 -6.41,-53.5 -12.83,-107 -18.97,-160.4 -0.23,-1.8 0.34,-3.5 1.48,-4.8 1.17,-1.3 2.82,-2.1 4.61,-2.2"
         style="fill:#4d274f;fill-opacity:1;fill-rule:nonzero;stroke:none"
         transform="matrix(0.13333333,0,0,-0.13333333,0,2829.3333)" />
      <path
         id="path33"
         d="m 9969.62,16911.1 c 2.28,0.8 3.87,3 4.01,5.5 3.8,68.5 8.58,153.7 31.97,228.5 0.7,2.2 0.1,4.5 -1.4,6.2 -66.56,70.6 -113,141.9 -134.32,206 -0.62,1.9 -2.12,3.3 -4.01,3.9 -1.81,0.6 -3.93,0.3 -5.56,-0.8 -194.37,-141.3 -352.11,-255.4 -391.2,-283.7 -0.15,-0.1 -0.27,-0.2 -0.4,-0.3 l -2.04,-1.5 c -1.97,-1.4 -2.95,-3.8 -2.51,-6.2 l 1.03,-5.5 c -1.42,-22.4 6.01,-49.8 14.44,-78.2 0.67,-2.4 2.6,-4 4.83,-4.4 2.66,-14.2 5.23,-28.4 7.62,-42.6 9.11,-54.1 13.89,-109.3 14.15,-164.1 0.03,-2.9 1.95,-5.3 4.71,-6 0.51,-0.2 1.01,-0.2 1.53,-0.2 2.24,0 4.36,1.2 5.48,3.2 l 92.4,170.2 126.94,-130.8 c 1.95,-2.1 5.09,-2.5 7.52,-1.2 2.47,1.5 3.71,4.3 3,7.1 l -33.22,131 172.29,-122.2 c 1.98,-1.4 4.64,-1.5 6.8,-0.3 2.12,1.3 3.29,3.7 3,6.1 -6.94,58.9 -16.35,118.2 -27.99,176.6 l 94.28,-94.9 c 1.78,-1.8 4.33,-2.3 6.65,-1.4"
         style="fill:#37225a;fill-opacity:1;fill-rule:nonzero;stroke:none"
         transform="matrix(0.13333333,0,0,-0.13333333,0,2829.3333)" />
      <path
         id="path34"
         d="m 10219.5,17396.8 c 0.8,-0.3 1.6,-0.5 2.4,-0.5 1.7,0 3.5,0.8 4.7,2.2 8.6,10 16.1,20.2 23.1,31.1 40.3,63.4 92.4,146.8 140.5,234.1 37.3,-42.8 69.6,-89.7 96,-139.7 1.1,-2.2 3.2,-2.9 5.8,-3.3 2.5,0.1 4.6,1.6 5.5,3.9 l 92.2,228.8 c 15,-43.4 27.3,-88.1 36.6,-133.2 0.5,-2.4 2.5,-4.4 5,-4.8 2.6,-0.4 5,0.6 6.4,2.8 26.9,42.9 53.6,86.5 79.5,129.7 32.6,54.7 64.5,109.7 94.6,163.4 3.8,6.8 9,16.1 7.8,26.5 -1.1,9.4 -7.3,17 -11.9,22.5 l -16.9,20.4 c -9.5,11.7 -19.1,23.3 -28.7,34.8 -2.2,2.6 -5.9,2.9 -8.6,1 -59.5,-45.6 -166.2,-124.8 -317.2,-235.6 v 0 c -101.6,-74.8 -214.7,-157.5 -326.9,-239.3 -1.6,-1.2 -2.6,-3.1 -2.6,-5.1 0,-2 1,-3.8 2.6,-5 61.7,-44 100.6,-111.9 106.6,-122.7 l -0.4,-5.9 c -0.1,-2.6 1.5,-5.1 3.9,-6.1"
         style="fill:#37225a;fill-opacity:1;fill-rule:nonzero;stroke:none"
         transform="matrix(0.13333333,0,0,-0.13333333,0,2829.3333)" />
      <path
         id="path35"
         d="m 8242.57,8123.4 c -3.29,0.8 -6.05,-1.7 -6.73,-4.9 l -47.16,-214.4 -719.22,-858.9 c -0.68,-0.7 -1.14,-1.7 -1.33,-2.8 L 6747.82,3298.2 c -0.63,-3.2 1.36,-6.4 4.55,-7.2 l 416.91,-107 c 0.53,-0.1 1.04,-0.2 1.56,-0.2 2.7,0 5.19,1.8 5.97,4.5 l 663,2232.9 c 0.23,0.7 0.3,1.4 0.28,2.1 l -68.85,1123.5 485.56,1015.8 c 0.41,0.9 0.62,1.8 0.6,2.8 l -9.23,551.9 c -0.05,3.2 -2.46,5.8 -5.6,6.1"
         style="fill:#37225a;fill-opacity:1;fill-rule:nonzero;stroke:none"
         transform="matrix(0.13333333,0,0,-0.13333333,0,2829.3333)" />
      <path
         id="path36"
         d="m 8272.58,18392.3 c 6.16,53.5 12.57,107 19,160.5 17.05,142.1 34.69,289.2 46.94,433.9 0.17,2 -0.65,4 -2.24,5.3 -1.6,1.3 -3.7,1.7 -5.67,1.2 l -1260.82,-360.3 c -1.62,-0.4 -2.97,-1.6 -3.77,-3 -0.81,-1.5 -0.98,-3.2 -0.49,-4.8 l 153.63,-505.5 153.75,-474.8 c 0.43,-1.3 1.28,-2.4 2.45,-3.2 l 369.72,-250.1 3.8,-2.6 c 1.05,-0.7 2.26,-1.1 3.51,-1.1 0.22,0 0.46,0 0.69,0 l 392.36,43 c 2.78,0.3 5,2.4 5.46,5.1 0.47,2.8 -0.96,5.5 -3.49,6.7 -168.47,79.7 -273.76,184.2 -281.6,279.5 -3.8,46.2 16.45,87.1 57.05,115.3 47.43,32.9 103.46,38.9 166.6,18 2.07,-0.6 4.24,-0.3 5.95,1.1 1.63,1.4 2.48,3.4 2.21,5.6 l -57.61,528.7 226.29,-4 c 3.77,-0.5 5.89,2.4 6.28,5.5"
         style="fill:#37225a;fill-opacity:1;fill-rule:nonzero;stroke:none"
         transform="matrix(0.13333333,0,0,-0.13333333,0,2829.3333)" />
    </g>
  </g>
</svg>
